FiraCodeDLIG-Bold.ufo
<glyph name="ampersand" format="2">
  <advance width="1200"/>
  <unicode hex="0026"/>
  <outline>
    <contour>
      <point x="558" y="1419" type="curve" smooth="yes"/>
      <point x="318" y="1419"/>
      <point x="143" y="1275"/>
      <point x="143" y="1086" type="curve" smooth="yes"/>
      <point x="143" y="926"/>
      <point x="222" y="828"/>
      <point x="379" y="786" type="curve"/>
      <point x="379" y="778" type="line"/>
      <point x="191" y="732"/>
      <point x="75" y="617"/>
      <point x="75" y="396" type="curve" smooth="yes"/>
      <point x="75" y="151"/>
      <point x="246" y="-34"/>
      <point x="562" y="-34" type="curve" smooth="yes"/>
      <point x="800" y="-34"/>
      <point x="941" y="53"/>
      <point x="1024" y="141" type="curve"/>
      <point x="1024" y="663" type="line"/>
      <point x="1156" y="663" type="line"/>
      <point x="1156" y="865" type="line"/>
      <point x="633" y="865" type="line" smooth="yes"/>
      <point x="522" y="865"/>
      <point x="447" y="942"/>
      <point x="447" y="1047" type="curve" smooth="yes"/>
      <point x="447" y="1143"/>
      <point x="500" y="1204"/>
      <point x="595" y="1204" type="curve" smooth="yes"/>
      <point x="672" y="1204"/>
      <point x="716" y="1178"/>
      <point x="776" y="1115" type="curve"/>
      <point x="947" y="1262" type="line"/>
      <point x="838" y="1378"/>
      <point x="721" y="1419"/>
    </contour>
    <contour>
      <point x="732" y="663" type="line"/>
      <point x="732" y="251" type="line"/>
      <point x="700" y="218"/>
      <point x="647" y="196"/>
      <point x="579" y="196" type="curve" smooth="yes"/>
      <point x="451" y="196"/>
      <point x="383" y="287"/>
      <point x="383" y="419" type="curve" smooth="yes"/>
      <point x="383" y="544"/>
      <point x="455" y="663"/>
      <point x="615" y="663" type="curve" smooth="yes"/>
    </contour>
  </outline>
</glyph>
<glyph name="parenleft" format="2">
  <advance width="1200"/>
  <unicode hex="0028"/>
  <outline>
    <contour>
      <point x="521" y="700" type="curve" smooth="yes"/>
      <point x="521" y="1030"/>
      <point x="632" y="1256"/>
      <point x="901" y="1549" type="curve"/>
      <point x="717" y="1715" type="line"/>
      <point x="401" y="1443"/>
      <point x="201" y="1138"/>
      <point x="201" y="700" type="curve" smooth="yes"/>
      <point x="201" y="262"/>
      <point x="401" y="-43"/>
      <point x="717" y="-315" type="curve"/>
      <point x="901" y="-149" type="line"/>
      <point x="613" y="163"/>
      <point x="521" y="370"/>
    </contour>
  </outline>
</glyph>
<glyph name="parenright" format="2">
  <advance width="1200"/>
  <unicode hex="0029"/>
  <outline>
    <contour>
      <point x="679" y="700" type="curve" smooth="yes"/>
      <point x="679" y="370"/>
      <point x="587" y="163"/>
      <point x="299" y="-149" type="curve"/>
      <point x="483" y="-315" type="line"/>
      <point x="799" y="-43"/>
      <point x="999" y="262"/>
      <point x="999" y="700" type="curve" smooth="yes"/>
      <point x="999" y="1138"/>
      <point x="799" y="1443"/>
      <point x="483" y="1715" type="curve"/>
      <point x="299" y="1549" type="line"/>
      <point x="568" y="1256"/>
      <point x="679" y="1030"/>
    </contour>
  </outline>
</glyph>
<glyph name="one" format="2">
  <advance width="1200"/>
  <unicode hex="0031"/>
  <outline>
    <contour>
      <point x="843" y="1386" type="line"/>
      <point x="563" y="1386" type="line"/>
      <point x="116" y="1114" type="line"/>
      <point x="250" y="897" type="line"/>
      <point x="535" y="1075" type="line"/>
      <point x="535" y="40" type="line"/>
      <point x="843" y="40" type="line"/>
    </contour>
    <contour>
      <point x="1102" y="239" type="line"/>
      <point x="201" y="239" type="line"/>
      <point x="201" y="0" type="line"/>
      <point x="1102" y="0" type="line"/>
    </contour>
  </outline>
</glyph>
<glyph name="equal" format="2">
  <advance width="1200"/>
  <unicode hex="003D"/>
  <outline>
    <contour>
      <point x="1054" y="956" type="line"/>
      <point x="146" y="956" type="line"/>
      <point x="146" y="709" type="line"/>
      <point x="1054" y="709" type="line"/>
    </contour>
    <contour>
      <point x="1054" y="535" type="line"/>
      <point x="146" y="535" type="line"/>
      <point x="146" y="290" type="line"/>
      <point x="1054" y="290" type="line"/>
    </contour>
  </outline>
</glyph>
<glyph name="greater" format="2">
  <advance width="1200"/>
  <unicode hex="003E"/>
  <outline>
    <contour>
      <point x="279" y="1225" type="line"/>
      <point x="139" y="998" type="line"/>
      <point x="789" y="628" type="line"/>
      <point x="139" y="246" type="line"/>
      <point x="282" y="31" type="line"/>
      <point x="1061" y="515" type="line"/>
      <point x="1061" y="741" type="line"/>
    </contour>
  </outline>
</glyph>
<glyph name="question" format="2">
  <advance width="1200"/>
  <unicode hex="003F"/>
  <outline>
    <contour>
      <point x="592" y="1421" type="curve" smooth="yes"/>
      <point x="383" y="1421"/>
      <point x="226" y="1340"/>
      <point x="112" y="1206" type="curve"/>
      <point x="312" y="1050" type="line"/>
      <point x="384" y="1132"/>
      <point x="472" y="1172"/>
      <point x="563" y="1172" type="curve" smooth="yes"/>
      <point x="656" y="1172"/>
      <point x="723" y="1132"/>
      <point x="723" y="1059" type="curve" smooth="yes"/>
      <point x="723" y="893"/>
      <point x="392" y="905"/>
      <point x="392" y="561" type="curve" smooth="yes"/>
      <point x="392" y="510" type="line"/>
      <point x="681" y="510" type="line"/>
      <point x="681" y="551" type="line" smooth="yes"/>
      <point x="681" y="785"/>
      <point x="1052" y="762"/>
      <point x="1052" y="1086" type="curve" smooth="yes"/>
      <point x="1052" y="1264"/>
      <point x="897" y="1421"/>
    </contour>
    <contour>
      <point x="540" y="328" type="curve" smooth="yes"/>
      <point x="439" y="328"/>
      <point x="360" y="246"/>
      <point x="360" y="147" type="curve" smooth="yes"/>
      <point x="360" y="48"/>
      <point x="439" y="-34"/>
      <point x="540" y="-34" type="curve" smooth="yes"/>
      <point x="640" y="-34"/>
      <point x="721" y="48"/>
      <point x="721" y="147" type="curve" smooth="yes"/>
      <point x="721" y="246"/>
      <point x="640" y="328"/>
    </contour>
  </outline>
</glyph>
<glyph name="C" format="2">
  <advance width="1200"/>
  <unicode hex="0043"/>
  <anchor x="704" y="0" name="bottom"/>
  <anchor x="722" y="1386" name="top"/>
  <outline>
    <contour>
      <point x="716" y="1421" type="curve" smooth="yes"/>
      <point x="349" y="1421"/>
      <point x="68" y="1160"/>
      <point x="68" y="696" type="curve" smooth="yes"/>
      <point x="68" y="220"/>
      <point x="335" y="-34"/>
      <point x="712" y="-34" type="curve" smooth="yes"/>
      <point x="926" y="-34"/>
      <point x="1075" y="50"/>
      <point x="1179" y="153" type="curve"/>
      <point x="1030" y="343" type="line"/>
      <point x="953" y="281"/>
      <point x="868" y="219"/>
      <point x="730" y="219" type="curve" smooth="yes"/>
      <point x="541" y="219"/>
      <point x="407" y="362"/>
      <point x="407" y="696" type="curve" smooth="yes"/>
      <point x="407" y="1036"/>
      <point x="549" y="1178"/>
      <point x="724" y="1178" type="curve" smooth="yes"/>
      <point x="832" y="1178"/>
      <point x="924" y="1138"/>
      <point x="1000" y="1076" type="curve"/>
      <point x="1161" y="1270" type="line"/>
      <point x="1045" y="1366"/>
      <point x="915" y="1421"/>
    </contour>
  </outline>
</glyph>
<glyph name="H" format="2">
  <advance width="1200"/>
  <unicode hex="0048"/>
  <anchor x="600" y="0" name="bottom"/>
  <anchor x="1116" y="0" name="bottomright"/>
  <anchor x="600" y="694" name="center"/>
  <anchor x="600" y="1386" name="top"/>
  <anchor x="84" y="1386" name="topleft"/>
  <outline>
    <contour>
      <point x="768" y="0" type="line"/>
      <point x="1096" y="0" type="line"/>
      <point x="1096" y="1386" type="line"/>
      <point x="768" y="1386" type="line"/>
      <point x="768" y="854" type="line"/>
      <point x="432" y="854" type="line"/>
      <point x="432" y="1386" type="line"/>
      <point x="104" y="1386" type="line"/>
      <point x="104" y="0" type="line"/>
      <point x="432" y="0" type="line"/>
      <point x="432" y="584" type="line"/>
      <point x="768" y="584" type="line"/>
    </contour>
  </outline>
</glyph>
<glyph name="M" format="2">
  <advance width="1200"/>
  <unicode hex="004D"/>
  <anchor x="600" y="0" name="bottom"/>
  <anchor x="1231" y="0" name="bottomright"/>
  <anchor x="600" y="1386" name="top"/>
  <outline>
    <contour>
      <point x="1087" y="1386" type="line"/>
      <point x="750" y="1386" type="line"/>
      <point x="604" y="490" type="line"/>
      <point x="450" y="1386" type="line"/>
      <point x="113" y="1386" type="line"/>
      <point x="35" y="0" type="line"/>
      <point x="316" y="0" type="line"/>
      <point x="326" y="588" type="line" smooth="yes"/>
      <point x="330" y="810"/>
      <point x="323" y="932"/>
      <point x="307" y="1107" type="curve"/>
      <point x="475" y="236" type="line"/>
      <point x="723" y="236" type="line"/>
      <point x="879" y="1107" type="line"/>
      <point x="865" y="922"/>
      <point x="856" y="813"/>
      <point x="862" y="593" type="curve" smooth="yes"/>
      <point x="879" y="0" type="line"/>
      <point x="1165" y="0" type="line"/>
    </contour>
  </outline>
</glyph>
<glyph name="U" format="2">
  <advance width="1200"/>
  <unicode hex="0055"/>
  <anchor x="600" y="0" name="bottom"/>
  <anchor x="830" y="0" name="ogonek"/>
  <anchor x="600" y="1386" name="top"/>
  <outline>
    <contour>
      <point x="1116" y="1386" type="line"/>
      <point x="787" y="1386" type="line"/>
      <point x="787" y="586" type="line" smooth="yes"/>
      <point x="787" y="337"/>
      <point x="759" y="210"/>
      <point x="600" y="210" type="curve" smooth="yes"/>
      <point x="441" y="210"/>
      <point x="413" y="337"/>
      <point x="413" y="586" type="curve" smooth="yes"/>
      <point x="413" y="1386" type="line"/>
      <point x="84" y="1386" type="line"/>
      <point x="84" y="464" type="line" smooth="yes"/>
      <point x="84" y="168"/>
      <point x="254" y="-34"/>
      <point x="600" y="-34" type="curve" smooth="yes"/>
      <point x="944" y="-34"/>
      <point x="1116" y="180"/>
      <point x="1116" y="464" type="curve" smooth="yes"/>
    </contour>
  </outline>
</glyph>
<glyph name="bracketleft" format="2">
  <advance width="1200"/>
  <unicode hex="005B"/>
  <outline>
    <contour>
      <point x="312" y="-246" type="line"/>
      <point x="928" y="-246" type="line"/>
      <point x="928" y="-12" type="line"/>
      <point x="610" y="-12" type="line"/>
      <point x="610" y="1410" type="line"/>
      <point x="928" y="1410" type="line"/>
      <point x="928" y="1646" type="line"/>
      <point x="312" y="1646" type="line"/>
    </contour>
  </outline>
</glyph>
<glyph name="asciicircum" format="2">
  <advance width="1200"/>
  <unicode hex="005E"/>
  <outline>
    <contour>
      <point x="744" y="1688" type="line"/>
      <point x="456" y="1688" type="line"/>
      <point x="78" y="1054" type="line"/>
      <point x="390" y="1054" type="line"/>
      <point x="598" y="1452" type="line"/>
      <point x="814" y="1054" type="line"/>
      <point x="1122" y="1054" type="line"/>
    </contour>
  </outline>
</glyph>
<glyph name="a" format="2">
  <advance width="1200"/>
  <unicode hex="0061"/>
  <anchor x="600" y="0" name="bottom"/>
  <anchor x="1059" y="-30" name="ogonek"/>
  <anchor x="586" y="1062" name="top"/>
  <outline>
    <contour>
      <point x="1034" y="306" type="curve" smooth="yes"/>
      <point x="1034" y="722" type="line" smooth="yes"/>
      <point x="1034" y="965"/>
      <point x="886" y="1097"/>
      <point x="570" y="1097" type="curve" smooth="yes"/>
      <point x="452" y="1097"/>
      <point x="293" y="1070"/>
      <point x="156" y="1018" type="curve"/>
      <point x="229" y="808" type="line"/>
      <point x="335" y="844"/>
      <point x="452" y="864"/>
      <point x="520" y="864" type="curve" smooth="yes"/>
      <point x="657" y="864"/>
      <point x="730" y="812"/>
      <point x="730" y="701" type="curve" smooth="yes"/>
      <point x="730" y="661" type="line"/>
      <point x="587" y="661" type="line" smooth="yes"/>
      <point x="259" y="661"/>
      <point x="70" y="530"/>
      <point x="70" y="300" type="curve" smooth="yes"/>
      <point x="70" y="104"/>
      <point x="210" y="-34"/>
      <point x="429" y="-34" type="curve" smooth="yes"/>
      <point x="561" y="-34"/>
      <point x="697" y="12"/>
      <point x="779" y="110" type="curve"/>
      <point x="828" y="22"/>
      <point x="914" y="-18"/>
      <point x="1039" y="-30" type="curve"/>
      <point x="1104" y="178" type="line"/>
      <point x="1054" y="196"/>
      <point x="1034" y="226"/>
    </contour>
    <contour>
      <point x="538" y="192" type="curve" smooth="yes"/>
      <point x="448" y="192"/>
      <point x="396" y="240"/>
      <point x="396" y="322" type="curve" smooth="yes"/>
      <point x="396" y="426"/>
      <point x="476" y="481"/>
      <point x="652" y="481" type="curve" smooth="yes"/>
      <point x="730" y="481" type="line"/>
      <point x="730" y="309" type="line"/>
      <point x="691" y="234"/>
      <point x="606" y="192"/>
    </contour>
  </outline>
</glyph>
<glyph name="d" format="2">
  <advance width="1200"/>
  <unicode hex="0064"/>
  <anchor x="600" y="0" name="bottom"/>
  <anchor x="600" y="532" name="center"/>
  <anchor x="600" y="1484" name="top"/>
  <anchor x="1101" y="1484" name="topright"/>
  <outline>
    <contour>
      <point x="744" y="1517" type="line"/>
      <point x="744" y="999" type="line"/>
      <point x="680" y="1063"/>
      <point x="598" y="1097"/>
      <point x="503" y="1097" type="curve" smooth="yes"/>
      <point x="241" y="1097"/>
      <point x="80" y="861"/>
      <point x="80" y="534" type="curve" smooth="yes"/>
      <point x="80" y="192"/>
      <point x="206" y="-34"/>
      <point x="470" y="-34" type="curve" smooth="yes"/>
      <point x="609" y="-34"/>
      <point x="705" y="34"/>
      <point x="764" y="117" type="curve"/>
      <point x="780" y="0" type="line"/>
      <point x="1060" y="0" type="line"/>
      <point x="1060" y="1484" type="line"/>
    </contour>
    <contour>
      <point x="588" y="866" type="curve" smooth="yes"/>
      <point x="653" y="866"/>
      <point x="700" y="834"/>
      <point x="744" y="779" type="curve"/>
      <point x="744" y="321" type="line"/>
      <point x="698" y="245"/>
      <point x="641" y="198"/>
      <point x="570" y="198" type="curve" smooth="yes"/>
      <point x="474" y="198"/>
      <point x="406" y="270"/>
      <point x="406" y="532" type="curve" smooth="yes"/>
      <point x="406" y="771"/>
      <point x="478" y="866"/>
    </contour>
  </outline>
</glyph>
<glyph name="e" format="2">
  <advance width="1200"/>
  <unicode hex="0065"/>
  <anchor x="600" y="0" name="bottom"/>
  <anchor x="890" y="0" name="ogonek"/>
  <anchor x="614" y="1062" name="top"/>
  <outline>
    <contour>
      <point x="414" y="439" type="curve"/>
      <point x="1102" y="439" type="line"/>
      <point x="1106" y="471"/>
      <point x="1108" y="516"/>
      <point x="1108" y="552" type="curve" smooth="yes"/>
      <point x="1108" y="894"/>
      <point x="913" y="1097"/>
      <point x="610" y="1097" type="curve" smooth="yes"/>
      <point x="276" y="1097"/>
      <point x="92" y="844"/>
      <point x="92" y="530" type="curve" smooth="yes"/>
      <point x="92" y="200"/>
      <point x="279" y="-34"/>
      <point x="644" y="-34" type="curve" smooth="yes"/>
      <point x="825" y="-34"/>
      <point x="968" y="26"/>
      <point x="1068" y="112" type="curve"/>
      <point x="941" y="284" type="line"/>
      <point x="857" y="230"/>
      <point x="766" y="196"/>
      <point x="669" y="196" type="curve" smooth="yes"/>
      <point x="534" y="196"/>
      <point x="435" y="265"/>
    </contour>
    <contour>
      <point x="610" y="885" type="curve" smooth="yes"/>
      <point x="745" y="885"/>
      <point x="798" y="783"/>
      <point x="800" y="629" type="curve"/>
      <point x="410" y="629" type="line"/>
      <point x="424" y="807"/>
      <point x="497" y="885"/>
    </contour>
  </outline>
</glyph>
<glyph name="f" format="2">
  <advance width="1200"/>
  <unicode hex="0066"/>
  <anchor x="534" y="0" name="bottom"/>
  <anchor x="740" y="1484" name="top"/>
  <outline>
    <contour>
      <point x="816" y="1517" type="curve" smooth="yes"/>
      <point x="528" y="1517"/>
      <point x="376" y="1358"/>
      <point x="376" y="1149" type="curve" smooth="yes"/>
      <point x="376" y="995" type="line"/>
      <point x="153" y="995" type="line"/>
      <point x="153" y="776" type="line"/>
      <point x="376" y="776" type="line"/>
      <point x="376" y="0" type="line"/>
      <point x="690" y="0" type="line"/>
      <point x="690" y="776" type="line"/>
      <point x="1001" y="776" type="line"/>
      <point x="1036" y="995" type="line"/>
      <point x="690" y="995" type="line"/>
      <point x="690" y="1137" type="line" smooth="yes"/>
      <point x="690" y="1242"/>
      <point x="740" y="1284"/>
      <point x="865" y="1284" type="curve" smooth="yes"/>
      <point x="941" y="1284"/>
      <point x="1019" y="1272"/>
      <point x="1093" y="1244" type="curve"/>
      <point x="1180" y="1450" type="line"/>
      <point x="1086" y="1490"/>
      <point x="971" y="1517"/>
    </contour>
  </outline>
</glyph>
<glyph name="j" format="2">
  <advance width="1200"/>
  <unicode hex="006A"/>
  <anchor x="600" y="-443" name="bottom "/>
  <anchor x="740" y="1062" name="top"/>
  <outline>
    <contour>
      <point x="945" y="1062" type="line"/>
      <point x="247" y="1062" type="line"/>
      <point x="247" y="846" type="line"/>
      <point x="629" y="846" type="line"/>
      <point x="629" y="288" type="line" smooth="yes"/>
      <point x="629" y="-21"/>
      <point x="461" y="-129"/>
      <point x="139" y="-202" type="curve"/>
      <point x="189" y="-443" type="line"/>
      <point x="685" y="-346"/>
      <point x="945" y="-153"/>
      <point x="945" y="308" type="curve" smooth="yes"/>
    </contour>
    <contour>
      <point x="740" y="1618" type="curve" smooth="yes"/>
      <point x="629" y="1618"/>
      <point x="552" y="1541"/>
      <point x="552" y="1440" type="curve" smooth="yes"/>
      <point x="552" y="1339"/>
      <point x="629" y="1261"/>
      <point x="740" y="1261" type="curve" smooth="yes"/>
      <point x="849" y="1261"/>
      <point x="926" y="1339"/>
      <point x="926" y="1440" type="curve" smooth="yes"/>
      <point x="926" y="1541"/>
      <point x="849" y="1618"/>
    </contour>
  </outline>
</glyph>
<glyph name="o" format="2">
  <advance width="1200"/>
  <unicode hex="006F"/>
  <anchor x="600" y="0" name="bottom"/>
  <anchor x="600" y="1062" name="top"/>
  <outline>
    <contour>
      <point x="600" y="1097" type="curve" smooth="yes"/>
      <point x="275" y="1097"/>
      <point x="84" y="869"/>
      <point x="84" y="532" type="curve" smooth="yes"/>
      <point x="84" y="175"/>
      <point x="275" y="-34"/>
      <point x="600" y="-34" type="curve" smooth="yes"/>
      <point x="925" y="-34"/>
      <point x="1116" y="179"/>
      <point x="1116" y="534" type="curve" smooth="yes"/>
      <point x="1116" y="874"/>
      <point x="927" y="1097"/>
    </contour>
    <contour>
      <point x="600" y="864" type="curve" smooth="yes"/>
      <point x="729" y="864"/>
      <point x="790" y="763"/>
      <point x="790" y="534" type="curve" smooth="yes"/>
      <point x="790" y="297"/>
      <point x="729" y="198"/>
      <point x="600" y="198" type="curve" smooth="yes"/>
      <point x="471" y="198"/>
      <point x="410" y="297"/>
      <point x="410" y="532" type="curve" smooth="yes"/>
      <point x="410" y="763"/>
      <point x="471" y="864"/>
    </contour>
  </outline>
</glyph>
<glyph name="q" format="2">
  <advance width="1200"/>
  <unicode hex="0071"/>
  <anchor x="600" y="0" name="bottom"/>
  <anchor x="600" y="-443" name="bottom "/>
  <anchor x="600" y="1062" name="top"/>
  <outline>
    <contour>
      <point x="509" y="1097" type="curve" smooth="yes"/>
      <point x="237" y="1097"/>
      <point x="84" y="861"/>
      <point x="84" y="534" type="curve" smooth="yes"/>
      <point x="84" y="190"/>
      <point x="199" y="-34"/>
      <point x="472" y="-34" type="curve" smooth="yes"/>
      <point x="597" y="-34"/>
      <point x="682" y="16"/>
      <point x="744" y="89" type="curve"/>
      <point x="744" y="-410" type="line"/>
      <point x="1060" y="-443" type="line"/>
      <point x="1060" y="1062" type="line"/>
      <point x="784" y="1062" type="line"/>
      <point x="770" y="977" type="line"/>
      <point x="706" y="1055"/>
      <point x="614" y="1097"/>
    </contour>
    <contour>
      <point x="592" y="866" type="curve" smooth="yes"/>
      <point x="657" y="866"/>
      <point x="702" y="834"/>
      <point x="744" y="779" type="curve"/>
      <point x="744" y="321" type="line"/>
      <point x="700" y="245"/>
      <point x="645" y="200"/>
      <point x="572" y="200" type="curve" smooth="yes"/>
      <point x="474" y="200"/>
      <point x="410" y="270"/>
      <point x="410" y="532" type="curve" smooth="yes"/>
      <point x="410" y="771"/>
      <point x="476" y="866"/>
    </contour>
  </outline>
</glyph>
<glyph name="v" format="2">
  <advance width="1200"/>
  <unicode hex="0076"/>
  <anchor x="600" y="0" name="bottom"/>
  <anchor x="600" y="1062" name="top"/>
  <outline>
    <contour>
      <point x="1142" y="1062" type="line"/>
      <point x="822" y="1062" type="line"/>
      <point x="606" y="242" type="line"/>
      <point x="399" y="1062" type="line"/>
      <point x="58" y="1062" type="line"/>
      <point x="416" y="0" type="line"/>
      <point x="788" y="0" type="line"/>
    </contour>
  </outline>
</glyph>
<glyph name="section" format="2">
  <advance width="1200"/>
  <unicode hex="00A7"/>
  <outline>
    <contour>
      <point x="638" y="1421" type="curve" smooth="yes"/>
      <point x="373" y="1421"/>
      <point x="203" y="1284"/>
      <point x="203" y="1096" type="curve" smooth="yes"/>
      <point x="203" y="1004"/>
      <point x="244" y="928"/>
      <point x="319" y="869" type="curve"/>
      <point x="230" y="813"/>
      <point x="156" y="729"/>
      <point x="156" y="615" type="curve" smooth="yes"/>
      <point x="156" y="443"/>
      <point x="267" y="363"/>
      <point x="458" y="305" type="curve" smooth="yes"/>
      <point x="669" y="239"/>
      <point x="696" y="209"/>
      <point x="696" y="146" type="curve" smooth="yes"/>
      <point x="696" y="91"/>
      <point x="637" y="53"/>
      <point x="539" y="53" type="curve" smooth="yes"/>
      <point x="444" y="53"/>
      <point x="360" y="84"/>
      <point x="275" y="139" type="curve"/>
      <point x="167" y="-55" type="line"/>
      <point x="265" y="-123"/>
      <point x="394" y="-167"/>
      <point x="554" y="-167" type="curve" smooth="yes"/>
      <point x="825" y="-167"/>
      <point x="999" y="-34"/>
      <point x="999" y="156" type="curve" smooth="yes"/>
      <point x="999" y="254"/>
      <point x="958" y="328"/>
      <point x="886" y="384" type="curve"/>
      <point x="974" y="440"/>
      <point x="1044" y="526"/>
      <point x="1044" y="641" type="curve" smooth="yes"/>
      <point x="1044" y="815"/>
      <point x="931" y="895"/>
      <point x="740" y="953" type="curve" smooth="yes"/>
      <point x="538" y="1015"/>
      <point x="508" y="1044"/>
      <point x="508" y="1108" type="curve" smooth="yes"/>
      <point x="508" y="1163"/>
      <point x="557" y="1202"/>
      <point x="651" y="1202" type="curve" smooth="yes"/>
      <point x="742" y="1202"/>
      <point x="827" y="1177"/>
      <point x="911" y="1125" type="curve"/>
      <point x="1023" y="1310" type="line"/>
      <point x="919" y="1377"/>
      <point x="784" y="1421"/>
    </contour>
    <contour>
      <point x="484" y="787" type="curve"/>
      <point x="717" y="709"/>
      <point x="767" y="681"/>
      <point x="767" y="600" type="curve" smooth="yes"/>
      <point x="767" y="561"/>
      <point x="749" y="513"/>
      <point x="714" y="469" type="curve"/>
      <point x="483" y="547"/>
      <point x="433" y="573"/>
      <point x="433" y="660" type="curve" smooth="yes"/>
      <point x="433" y="699"/>
      <point x="447" y="745"/>
    </contour>
  </outline>
</glyph>
<glyph name="dieresis" format="2">
  <advance width="1200"/>
  <unicode hex="00A8"/>
  <anchor x="600" y="1062" name="_top"/>
  <anchor x="600" y="1435" name="top"/>
  <outline>
    <contour>
      <point x="369" y="1275" type="curve" smooth="yes"/>
      <point x="462" y="1275"/>
      <point x="533" y="1344"/>
      <point x="533" y="1435" type="curve" smooth="yes"/>
      <point x="533" y="1524"/>
      <point x="462" y="1594"/>
      <point x="369" y="1594" type="curve" smooth="yes"/>
      <point x="277" y="1594"/>
      <point x="204" y="1524"/>
      <point x="204" y="1435" type="curve" smooth="yes"/>
      <point x="204" y="1344"/>
      <point x="277" y="1275"/>
    </contour>
    <contour>
      <point x="831" y="1275" type="curve" smooth="yes"/>
      <point x="924" y="1275"/>
      <point x="996" y="1344"/>
      <point x="996" y="1435" type="curve" smooth="yes"/>
      <point x="996" y="1524"/>
      <point x="924" y="1594"/>
      <point x="831" y="1594" type="curve" smooth="yes"/>
      <point x="742" y="1594"/>
      <point x="667" y="1524"/>
      <point x="667" y="1435" type="curve" smooth="yes"/>
      <point x="667" y="1344"/>
      <point x="742" y="1275"/>
    </contour>
  </outline>
</glyph>
<glyph name="degree" format="2">
  <advance width="1200"/>
  <unicode hex="00B0"/>
  <outline>
    <contour>
      <point x="499" y="1517" type="curve" smooth="yes"/>
      <point x="323" y="1517"/>
      <point x="142" y="1394"/>
      <point x="142" y="1180" type="curve" smooth="yes"/>
      <point x="142" y="966"/>
      <point x="323" y="839"/>
      <point x="499" y="839" type="curve" smooth="yes"/>
      <point x="675" y="839"/>
      <point x="856" y="966"/>
      <point x="856" y="1180" type="curve" smooth="yes"/>
      <point x="856" y="1394"/>
      <point x="675" y="1517"/>
    </contour>
    <contour>
      <point x="499" y="1335" type="curve" smooth="yes"/>
      <point x="583" y="1335"/>
      <point x="638" y="1275"/>
      <point x="638" y="1180" type="curve" smooth="yes"/>
      <point x="638" y="1085"/>
      <point x="583" y="1023"/>
      <point x="499" y="1023" type="curve" smooth="yes"/>
      <point x="415" y="1023"/>
      <point x="360" y="1085"/>
      <point x="360" y="1180" type="curve" smooth="yes"/>
      <point x="360" y="1275"/>
      <point x="415" y="1335"/>
    </contour>
  </outline>
</glyph>
<glyph name="plusminus" format="2">
  <advance width="1200"/>
  <unicode hex="00B1"/>
  <outline>
    <contour>
      <point x="733" y="1117" type="line"/>
      <point x="467" y="1117" type="line"/>
      <point x="467" y="803" type="line"/>
      <point x="166" y="803" type="line"/>
      <point x="166" y="564" type="line"/>
      <point x="467" y="564" type="line"/>
      <point x="467" y="349" type="line"/>
      <point x="733" y="349" type="line"/>
      <point x="733" y="564" type="line"/>
      <point x="1034" y="564" type="line"/>
      <point x="1034" y="803" type="line"/>
      <point x="733" y="803" type="line"/>
    </contour>
    <contour>
      <point x="1034" y="239" type="line"/>
      <point x="166" y="239" type="line"/>
      <point x="166" y="0" type="line"/>
      <point x="1034" y="0" type="line"/>
    </contour>
  </outline>
</glyph>
<glyph name="micro" format="2">
  <advance width="1200"/>
  <unicode hex="00B5"/>
  <outline>
    <contour>
      <point x="1048" y="1062" type="line"/>
      <point x="732" y="1062" type="line"/>
      <point x="732" y="317" type="line"/>
      <point x="687" y="249"/>
      <point x="627" y="204"/>
      <point x="557" y="204" type="curve" smooth="yes"/>
      <point x="454" y="204"/>
      <point x="447" y="289"/>
      <point x="447" y="458" type="curve" smooth="yes"/>
      <point x="447" y="1062" type="line"/>
      <point x="133" y="1062" type="line"/>
      <point x="133" y="-442" type="line"/>
      <point x="432" y="-410" type="line"/>
      <point x="432" y="-230" type="line" smooth="yes"/>
      <point x="432" y="-101"/>
      <point x="406" y="-29"/>
      <point x="359" y="66" type="curve"/>
      <point x="417" y="-8"/>
      <point x="457" y="-30"/>
      <point x="532" y="-30" type="curve" smooth="yes"/>
      <point x="626" y="-30"/>
      <point x="703" y="32"/>
      <point x="761" y="127" type="curve"/>
      <point x="767" y="65"/>
      <point x="778" y="10"/>
      <point x="788" y="-28" type="curve"/>
      <point x="1073" y="0" type="line"/>
      <point x="1058" y="115"/>
      <point x="1048" y="241"/>
      <point x="1048" y="377" type="curve" smooth="yes"/>
    </contour>
  </outline>
</glyph>
<glyph name="cedilla" format="2">
  <advance width="1200"/>
  <unicode hex="00B8"/>
  <anchor x="600" y="0" name="_bottom"/>
  <outline>
    <contour>
      <point x="639" y="-290" type="curve" smooth="yes"/>
      <point x="639" y="-336"/>
      <point x="599" y="-352"/>
      <point x="535" y="-352" type="curve" smooth="yes"/>
      <point x="491" y="-352"/>
      <point x="446" y="-338"/>
      <point x="407" y="-318" type="curve"/>
      <point x="333" y="-463" type="line"/>
      <point x="387" y="-495"/>
      <point x="473" y="-525"/>
      <point x="568" y="-525" type="curve" smooth="yes"/>
      <point x="749" y="-525"/>
      <point x="867" y="-430"/>
      <point x="867" y="-294" type="curve" smooth="yes"/>
      <point x="867" y="-186"/>
      <point x="799" y="-112"/>
      <point x="659" y="-96" type="curve"/>
      <point x="659" y="32" type="line"/>
      <point x="483" y="32" type="line"/>
      <point x="455" y="-223" type="line"/>
      <point x="577" y="-223"/>
      <point x="639" y="-237"/>
    </contour>
  </outline>
</glyph>
<glyph name="AE" format="2">
  <advance width="1200"/>
  <unicode hex="00C6"/>
  <anchor x="600" y="0" name="bottom"/>
  <anchor x="701" y="1386" name="top"/>
  <outline>
    <contour>
      <point x="627" y="305" type="line"/>
      <point x="676" y="0" type="line"/>
      <point x="1206" y="0" type="line"/>
      <point x="1206" y="222" type="line"/>
      <point x="909" y="222" type="line"/>
      <point x="838" y="591" type="line"/>
      <point x="1112" y="591" type="line"/>
      <point x="1112" y="813" type="line"/>
      <point x="798" y="813" type="line"/>
      <point x="732" y="1164" type="line"/>
      <point x="1096" y="1164" type="line"/>
      <point x="1130" y="1386" type="line"/>
      <point x="325" y="1386" type="line"/>
      <point x="-24" y="0" type="line"/>
      <point x="290" y="0" type="line"/>
      <point x="345" y="305" type="line"/>
    </contour>
    <contour>
      <point x="382" y="529" type="line"/>
      <point x="490" y="1166" type="line"/>
      <point x="593" y="529" type="line"/>
    </contour>
  </outline>
</glyph>
<glyph name="germandbls" format="2">
  <advance width="1200"/>
  <unicode hex="00DF"/>
  <outline>
    <contour>
      <point x="582" y="1517" type="curve" smooth="yes"/>
      <point x="278" y="1517"/>
      <point x="120" y="1348"/>
      <point x="120" y="1062" type="curve" smooth="yes"/>
      <point x="120" y="0" type="line"/>
      <point x="436" y="0" type="line"/>
      <point x="436" y="1076" type="line" smooth="yes"/>
      <point x="436" y="1224"/>
      <point x="475" y="1296"/>
      <point x="574" y="1296" type="curve" smooth="yes"/>
      <point x="641" y="1296"/>
      <point x="681" y="1258"/>
      <point x="681" y="1192" type="curve" smooth="yes"/>
      <point x="681" y="1048"/>
      <point x="530" y="989"/>
      <point x="530" y="809" type="curve" smooth="yes"/>
      <point x="530" y="547"/>
      <point x="829" y="553"/>
      <point x="829" y="334" type="curve" smooth="yes"/>
      <point x="829" y="254"/>
      <point x="790" y="209"/>
      <point x="712" y="209" type="curve" smooth="yes"/>
      <point x="676" y="209"/>
      <point x="639" y="220"/>
      <point x="599" y="240" type="curve"/>
      <point x="498" y="28" type="line"/>
      <point x="568" y="-10"/>
      <point x="650" y="-34"/>
      <point x="752" y="-34" type="curve" smooth="yes"/>
      <point x="983" y="-34"/>
      <point x="1155" y="100"/>
      <point x="1155" y="336" type="curve" smooth="yes"/>
      <point x="1155" y="684"/>
      <point x="806" y="711"/>
      <point x="806" y="864" type="curve" smooth="yes"/>
      <point x="806" y="986"/>
      <point x="987" y="1024"/>
      <point x="987" y="1206" type="curve" smooth="yes"/>
      <point x="987" y="1380"/>
      <point x="841" y="1517"/>
    </contour>
  </outline>
</glyph>
<glyph name="eth" format="2">
  <advance width="1200"/>
  <unicode hex="00F0"/>
  <outline>
    <contour>
      <point x="252" y="1142" type="line"/>
      <point x="452" y="1050" type="line"/>
      <point x="563" y="1164" type="line"/>
      <point x="658" y="1095"/>
      <point x="731" y="1000"/>
      <point x="777" y="863" type="curve"/>
      <point x="705" y="930"/>
      <point x="628" y="964"/>
      <point x="509" y="964" type="curve" smooth="yes"/>
      <point x="279" y="964"/>
      <point x="79" y="764"/>
      <point x="79" y="468" type="curve" smooth="yes"/>
      <point x="79" y="150"/>
      <point x="301" y="-34"/>
      <point x="588" y="-34" type="curve" smooth="yes"/>
      <point x="927" y="-34"/>
      <point x="1113" y="225"/>
      <point x="1113" y="553" type="curve" smooth="yes"/>
      <point x="1113" y="912"/>
      <point x="1001" y="1180"/>
      <point x="741" y="1346" type="curve"/>
      <point x="848" y="1454" type="line"/>
      <point x="686" y="1595" type="line"/>
      <point x="540" y="1443" type="line"/>
      <point x="456" y="1475"/>
      <point x="358" y="1499"/>
      <point x="248" y="1516" type="curve"/>
      <point x="186" y="1310" type="line"/>
      <point x="253" y="1297"/>
      <point x="313" y="1281"/>
      <point x="368" y="1263" type="curve"/>
    </contour>
    <contour>
      <point x="793" y="513" type="curve" smooth="yes"/>
      <point x="793" y="299"/>
      <point x="731" y="196"/>
      <point x="594" y="196" type="curve" smooth="yes"/>
      <point x="477" y="196"/>
      <point x="401" y="277"/>
      <point x="401" y="472" type="curve" smooth="yes"/>
      <point x="401" y="656"/>
      <point x="477" y="742"/>
      <point x="592" y="742" type="curve" smooth="yes"/>
      <point x="671" y="742"/>
      <point x="740" y="712"/>
      <point x="791" y="656" type="curve"/>
      <point x="793" y="610"/>
      <point x="793" y="563"/>
    </contour>
  </outline>
</glyph>
<glyph name="dotlessi" format="2">
  <advance width="1200"/>
  <unicode hex="0131"/>
  <anchor x="809" y="0" name="ogonek"/>
  <anchor x="598" y="1062" name="top"/>
  <outline>
    <contour>
      <point x="789" y="1062" type="line"/>
      <point x="182" y="1062" type="line"/>
      <point x="182" y="846" type="line"/>
      <point x="473" y="846" type="line"/>
      <point x="473" y="216" type="line"/>
      <point x="172" y="216" type="line"/>
      <point x="172" y="0" type="line"/>
      <point x="1059" y="0" type="line"/>
      <point x="1059" y="216" type="line"/>
      <point x="789" y="216" type="line"/>
    </contour>
  </outline>
</glyph>
<glyph name="IJ" format="2">
  <advance width="1200"/>
  <unicode hex="0132"/>
  <outline>
    <contour>
      <point x="363" y="-144" type="curve"/>
      <point x="400" y="-365" type="line"/>
      <point x="926" y="-280"/>
      <point x="1113" y="-35"/>
      <point x="1113" y="341" type="curve" smooth="yes"/>
      <point x="1113" y="1386" type="line"/>
      <point x="16" y="1386" type="line"/>
      <point x="16" y="1183" type="line"/>
      <point x="162" y="1183" type="line"/>
      <point x="162" y="204" type="line"/>
      <point x="16" y="204" type="line"/>
      <point x="16" y="0" type="line"/>
      <point x="570" y="0" type="line"/>
      <point x="570" y="204" type="line"/>
      <point x="464" y="204" type="line"/>
      <point x="464" y="1183" type="line"/>
      <point x="797" y="1183" type="line"/>
      <point x="797" y="328" type="line" smooth="yes"/>
      <point x="797" y="59"/>
      <point x="730" y="-81"/>
    </contour>
  </outline>
</glyph>
<glyph name="lslash" format="2">
  <advance width="1200"/>
  <unicode hex="0142"/>
  <anchor x="710" y="0" name="bottom"/>
  <anchor x="1136" y="766" name="center"/>
  <anchor x="512" y="1484" name="top"/>
  <anchor x="754" y="1484" name="topright"/>
  <outline>
    <contour>
      <point x="378" y="760" type="line"/>
      <point x="178" y="638" type="line"/>
      <point x="289" y="462" type="line"/>
      <point x="694" y="708" type="line"/>
      <point x="936" y="856" type="line"/>
      <point x="823" y="1034" type="line"/>
    </contour>
    <component base="l"/>
  </outline>
</glyph>
<glyph name="eng" format="2">
  <advance width="1200"/>
  <unicode hex="014B"/>
  <outline>
    <contour>
      <point x="1060" y="120" type="curve" smooth="yes"/>
      <point x="1060" y="780" type="line" smooth="yes"/>
      <point x="1060" y="981"/>
      <point x="957" y="1097"/>
      <point x="768" y="1097" type="curve" smooth="yes"/>
      <point x="642" y="1097"/>
      <point x="532" y="1045"/>
      <point x="438" y="939" type="curve"/>
      <point x="416" y="1062" type="line"/>
      <point x="140" y="1062" type="line"/>
      <point x="140" y="0" type="line"/>
      <point x="456" y="0" type="line"/>
      <point x="456" y="735" type="line"/>
      <point x="516" y="815"/>
      <point x="575" y="864"/>
      <point x="642" y="864" type="curve" smooth="yes"/>
      <point x="722" y="864"/>
      <point x="744" y="819"/>
      <point x="744" y="689" type="curve" smooth="yes"/>
      <point x="744" y="101" type="line" smooth="yes"/>
      <point x="744" y="-92"/>
      <point x="665" y="-152"/>
      <point x="527" y="-212" type="curve"/>
      <point x="637" y="-443" type="line"/>
      <point x="892" y="-340"/>
      <point x="1060" y="-228"/>
    </contour>
  </outline>
</glyph>
<glyph name="tbar" format="2">
  <advance width="1200"/>
  <unicode hex="0167"/>
  <anchor x="721" y="0" name="bottom"/>
  <anchor x="600" y="532" name="center"/>
  <anchor x="496" y="1304" name="top"/>
  <anchor x="709" y="1621" name="topright"/>
  <outline>
    <contour>
      <point x="963" y="722" type="line"/>
      <point x="338" y="722" type="line"/>
      <point x="139" y="722" type="line"/>
      <point x="139" y="523" type="line"/>
      <point x="654" y="523" type="line"/>
      <point x="963" y="523" type="line"/>
    </contour>
    <component base="t"/>
  </outline>
</glyph>
<glyph name="hungarumlaut" format="2">
  <advance width="1200"/>
  <unicode hex="02DD"/>
  <anchor x="510" y="1062" name="_top"/>
  <outline>
    <contour>
      <point x="229" y="1322" type="line"/>
      <point x="394" y="1251" type="line"/>
      <point x="642" y="1616" type="line"/>
      <point x="428" y="1715" type="line"/>
    </contour>
    <contour>
      <point x="555" y="1326" type="line"/>
      <point x="718" y="1249" type="line"/>
      <point x="969" y="1612" type="line"/>
      <point x="757" y="1715" type="line"/>
    </contour>
  </outline>
</glyph>
<glyph name="acutecomb" format="2">
  <unicode hex="0301"/>
  <anchor x="600" y="1062" name="_top"/>
  <outline>
    <contour>
      <point x="752" y="1670" type="line"/>
      <point x="316" y="1405" type="line"/>
      <point x="403" y="1245" type="line"/>
      <point x="875" y="1432" type="line"/>
    </contour>
  </outline>
</glyph>
<glyph name="caroncomb" format="2">
  <unicode hex="030C"/>
  <anchor x="602" y="1062" name="_top"/>
  <outline>
    <contour>
      <point x="868" y="1567" type="line"/>
      <point x="602" y="1397" type="line"/>
      <point x="336" y="1567" type="line"/>
      <point x="221" y="1438" type="line"/>
      <point x="505" y="1178" type="line"/>
      <point x="699" y="1178" type="line"/>
      <point x="981" y="1438" type="line"/>
    </contour>
  </outline>
</glyph>
<glyph name="commaaccent" format="2">
  <unicode hex="0326"/>
  <anchor x="602" y="0" name="_bottom"/>
  <outline>
    <contour>
      <point x="602" y="-130" type="curve" smooth="yes"/>
      <point x="511" y="-130"/>
      <point x="443" y="-200"/>
      <point x="443" y="-285" type="curve" smooth="yes"/>
      <point x="443" y="-342"/>
      <point x="471" y="-384"/>
      <point x="509" y="-414" type="curve"/>
      <point x="455" y="-644" type="line"/>
      <point x="613" y="-644" type="line"/>
      <point x="711" y="-450" type="line" smooth="yes"/>
      <point x="741" y="-390"/>
      <point x="759" y="-333"/>
      <point x="759" y="-285" type="curve" smooth="yes"/>
      <point x="759" y="-196"/>
      <point x="691" y="-130"/>
    </contour>
  </outline>
</glyph>
<glyph name="archaicsampi" format="2">
  <advance width="1200"/>
  <unicode hex="0373"/>
  <anchor x="600" y="-443" name="bottom"/>
  <anchor x="600" y="1062" name="top"/>
  <outline>
    <contour>
      <point x="754" y="989" type="line"/>
      <point x="438" y="989" type="line"/>
      <point x="438" y="-443" type="line"/>
      <point x="754" y="-410" type="line"/>
    </contour>
    <contour>
      <point x="70" y="804" type="line"/>
      <point x="132" y="822"/>
      <point x="214" y="826"/>
      <point x="273" y="826" type="curve" smooth="yes"/>
      <point x="1138" y="826" type="line"/>
      <point x="1138" y="1062" type="line"/>
      <point x="264" y="1062" type="line" smooth="yes"/>
      <point x="158" y="1062"/>
      <point x="85" y="1052"/>
      <point x="22" y="1026" type="curve"/>
    </contour>
  </outline>
</glyph>
<glyph name="pamphyliandigamma" format="2">
  <advance width="1200"/>
  <unicode hex="0377"/>
  <anchor x="600" y="0" name="bottom"/>
  <anchor x="600" y="1062" name="top"/>
  <outline>
    <contour>
      <point x="132" y="0" type="line"/>
      <point x="454" y="0" type="line"/>
      <point x="827" y="792" type="line"/>
      <point x="1052" y="1062" type="line"/>
      <point x="735" y="1062" type="line"/>
      <point x="375" y="274" type="line"/>
      <point x="410" y="401"/>
      <point x="430" y="560"/>
      <point x="430" y="720" type="curve" smooth="yes"/>
      <point x="430" y="1062" type="line"/>
      <point x="132" y="1062" type="line"/>
    </contour>
    <contour>
      <point x="1045" y="-34" type="curve"/>
      <point x="1138" y="196" type="line"/>
      <point x="1070" y="227"/>
      <point x="1052" y="267"/>
      <point x="1052" y="358" type="curve" smooth="yes"/>
      <point x="1052" y="1062" type="line"/>
      <point x="827" y="792" type="line"/>
      <point x="805" y="687"/>
      <point x="759" y="392"/>
      <point x="759" y="288" type="curve" smooth="yes"/>
      <point x="759" y="98"/>
      <point x="868" y="4"/>
    </contour>
  </outline>
</glyph>
<glyph name="Delta" format="2">
  <advance width="1200"/>
  <unicode hex="0394"/>
  <anchor x="600" y="0" name="bottom"/>
  <anchor x="600" y="1386" name="top"/>
  <outline>
    <contour>
      <point x="800" y="1386" type="line"/>
      <point x="402" y="1386" type="line"/>
      <point x="-22" y="0" type="line"/>
      <point x="1224" y="0" type="line"/>
    </contour>
    <contour>
      <point x="596" y="1150" type="line"/>
      <point x="809" y="267" type="line"/>
      <point x="385" y="267" type="line"/>
    </contour>
  </outline>
</glyph>
<glyph name="Xi" format="2">
  <advance width="1200"/>
  <unicode hex="039E"/>
  <anchor x="600" y="0" name="bottom"/>
  <anchor x="600" y="1386" name="top"/>
  <outline>
    <contour>
      <point x="1095" y="269" type="line"/>
      <point x="105" y="269" type="line"/>
      <point x="105" y="0" type="line"/>
      <point x="1095" y="0" type="line"/>
    </contour>
    <contour>
      <point x="969" y="827" type="line"/>
      <point x="225" y="827" type="line"/>
      <point x="225" y="581" type="line"/>
      <point x="969" y="581" type="line"/>
    </contour>
    <contour>
      <point x="1094" y="1386" type="line"/>
      <point x="105" y="1386" type="line"/>
      <point x="105" y="1126" type="line"/>
      <point x="1057" y="1126" type="line"/>
    </contour>
  </outline>
</glyph>
<glyph name="Phi" format="2">
  <advance width="1200"/>
  <unicode hex="03A6"/>
  <anchor x="600" y="0" name="bottom"/>
  <anchor x="600" y="1386" name="top"/>
  <outline>
    <contour>
      <point x="713" y="1386" type="line"/>
      <point x="487" y="1386" type="line"/>
      <point x="487" y="1228" type="line"/>
      <point x="160" y="1216"/>
      <point x="8" y="1061"/>
      <point x="8" y="700" type="curve" smooth="yes"/>
      <point x="8" y="342"/>
      <point x="161" y="170"/>
      <point x="487" y="160" type="curve"/>
      <point x="487" y="0" type="line"/>
      <point x="713" y="0" type="line"/>
      <point x="713" y="160" type="line"/>
      <point x="1027" y="170"/>
      <point x="1192" y="342"/>
      <point x="1192" y="700" type="curve" smooth="yes"/>
      <point x="1192" y="1061"/>
      <point x="1028" y="1216"/>
      <point x="713" y="1228" type="curve"/>
    </contour>
    <contour>
      <point x="506" y="1051" type="curve"/>
      <point x="506" y="341" type="line"/>
      <point x="341" y="345"/>
      <point x="299" y="473"/>
      <point x="299" y="700" type="curve" smooth="yes"/>
      <point x="299" y="930"/>
      <point x="349" y="1049"/>
    </contour>
    <contour>
      <point x="694" y="1051" type="line"/>
      <point x="849" y="1049"/>
      <point x="901" y="930"/>
      <point x="901" y="700" type="curve" smooth="yes"/>
      <point x="901" y="475"/>
      <point x="859" y="345"/>
      <point x="694" y="341" type="curve"/>
    </contour>
  </outline>
</glyph>
<glyph name="alpha" format="2">
  <advance width="1200"/>
  <unicode hex="03B1"/>
  <anchor x="617" y="0" name="bottom"/>
  <anchor x="560" y="1062" name="top"/>
  <outline>
    <contour>
      <point x="492" y="1097" type="curve" smooth="yes"/>
      <point x="236" y="1097"/>
      <point x="69" y="856"/>
      <point x="69" y="526" type="curve" smooth="yes"/>
      <point x="69" y="172"/>
      <point x="221" y="-34"/>
      <point x="471" y="-34" type="curve" smooth="yes"/>
      <point x="643" y="-34"/>
      <point x="751" y="60"/>
      <point x="801" y="260" type="curve"/>
      <point x="823" y="154" type="line" smooth="yes"/>
      <point x="850" y="21"/>
      <point x="925" y="-14"/>
      <point x="1040" y="-34" type="curve"/>
      <point x="1143" y="204" type="line"/>
      <point x="1084" y="216"/>
      <point x="1049" y="240"/>
      <point x="1027" y="335" type="curve" smooth="yes"/>
      <point x="973" y="566" type="line"/>
      <point x="1142" y="1062" type="line"/>
      <point x="857" y="1062" type="line"/>
      <point x="809" y="808" type="line"/>
      <point x="786" y="988"/>
      <point x="686" y="1097"/>
    </contour>
    <contour>
      <point x="536" y="866" type="curve" smooth="yes"/>
      <point x="623" y="866"/>
      <point x="684" y="776"/>
      <point x="722" y="532" type="curve"/>
      <point x="675" y="264"/>
      <point x="600" y="196"/>
      <point x="528" y="196" type="curve" smooth="yes"/>
      <point x="446" y="196"/>
      <point x="390" y="287"/>
      <point x="390" y="526" type="curve" smooth="yes"/>
      <point x="390" y="759"/>
      <point x="442" y="866"/>
    </contour>
  </outline>
</glyph>
<glyph name="theta" format="2">
  <advance width="1200"/>
  <unicode hex="03B8"/>
  <anchor x="600" y="0" name="bottom"/>
  <anchor x="600" y="1484" name="top"/>
  <outline>
    <contour>
      <point x="600" y="1517" type="curve" smooth="yes"/>
      <point x="275" y="1517"/>
      <point x="84" y="1247"/>
      <point x="84" y="744" type="curve" smooth="yes"/>
      <point x="84" y="233"/>
      <point x="275" y="-34"/>
      <point x="600" y="-34" type="curve" smooth="yes"/>
      <point x="925" y="-34"/>
      <point x="1116" y="237"/>
      <point x="1116" y="746" type="curve" smooth="yes"/>
      <point x="1116" y="1253"/>
      <point x="927" y="1517"/>
    </contour>
    <contour>
      <point x="810" y="649" type="line"/>
      <point x="800" y="296"/>
      <point x="729" y="194"/>
      <point x="600" y="194" type="curve" smooth="yes"/>
      <point x="471" y="194"/>
      <point x="398" y="296"/>
      <point x="388" y="649" type="curve"/>
    </contour>
    <contour>
      <point x="600" y="1290" type="curve" smooth="yes"/>
      <point x="731" y="1290"/>
      <point x="800" y="1186"/>
      <point x="810" y="833" type="curve"/>
      <point x="390" y="833" type="line"/>
      <point x="398" y="1186"/>
      <point x="471" y="1290"/>
    </contour>
  </outline>
</glyph>
<glyph name="iota" format="2">
  <advance width="1200"/>
  <unicode hex="03B9"/>
  <anchor x="600" y="0" name="bottom"/>
  <anchor x="580" y="1062" name="top"/>
  <outline>
    <contour>
      <point x="402" y="832" type="line"/>
      <point x="402" y="321" type="line" smooth="yes"/>
      <point x="402" y="104"/>
      <point x="544" y="-34"/>
      <point x="775" y="-34" type="curve" smooth="yes"/>
      <point x="909" y="-34"/>
      <point x="1010" y="-2"/>
      <point x="1081" y="36" type="curve"/>
      <point x="1006" y="247" type="line"/>
      <point x="961" y="229"/>
      <point x="909" y="215"/>
      <point x="855" y="215" type="curve" smooth="yes"/>
      <point x="771" y="215"/>
      <point x="718" y="248"/>
      <point x="718" y="332" type="curve" smooth="yes"/>
      <point x="718" y="1062" type="line"/>
      <point x="101" y="1062" type="line"/>
      <point x="75" y="832" type="line"/>
    </contour>
  </outline>
</glyph>
<glyph name="xi" format="2">
  <advance width="1200"/>
  <unicode hex="03BE"/>
  <anchor x="600" y="-443" name="bottom"/>
  <anchor x="600" y="1484" name="top"/>
  <outline>
    <contour>
      <point x="718" y="1517" type="curve" smooth="yes"/>
      <point x="455" y="1517"/>
      <point x="227" y="1386"/>
      <point x="227" y="1179" type="curve" smooth="yes"/>
      <point x="227" y="1022"/>
      <point x="341" y="938"/>
      <point x="495" y="888" type="curve"/>
      <point x="316" y="854"/>
      <point x="149" y="747"/>
      <point x="149" y="524" type="curve" smooth="yes"/>
      <point x="149" y="238"/>
      <point x="327" y="161"/>
      <point x="671" y="24" type="curve" smooth="yes"/>
      <point x="763" y="-12"/>
      <point x="793" y="-32"/>
      <point x="793" y="-83" type="curve" smooth="yes"/>
      <point x="793" y="-169"/>
      <point x="706" y="-227"/>
      <point x="642" y="-262" type="curve"/>
      <point x="757" y="-452" type="line"/>
      <point x="1002" y="-346"/>
      <point x="1121" y="-226"/>
      <point x="1121" y="-59" type="curve" smooth="yes"/>
      <point x="1121" y="111"/>
      <point x="1019" y="172"/>
      <point x="832" y="243" type="curve" smooth="yes"/>
      <point x="554" y="348"/>
      <point x="475" y="384"/>
      <point x="475" y="546" type="curve" smooth="yes"/>
      <point x="475" y="692"/>
      <point x="582" y="767"/>
      <point x="767" y="767" type="curve" smooth="yes"/>
      <point x="941" y="767" type="line"/>
      <point x="971" y="976" type="line"/>
      <point x="776" y="976" type="line" smooth="yes"/>
      <point x="628" y="976"/>
      <point x="545" y="1018"/>
      <point x="545" y="1143" type="curve" smooth="yes"/>
      <point x="545" y="1242"/>
      <point x="634" y="1296"/>
      <point x="757" y="1296" type="curve" smooth="yes"/>
      <point x="847" y="1296"/>
      <point x="938" y="1270"/>
      <point x="1008" y="1225" type="curve"/>
      <point x="1145" y="1394" type="line"/>
      <point x="1029" y="1474"/>
      <point x="889" y="1517"/>
    </contour>
  </outline>
</glyph>
<glyph name="UpsilonhookSymbol" format="2">
  <advance width="1200"/>
  <unicode hex="03D2"/>
  <anchor x="606" y="1386" name="top"/>
  <anchor x="-16" y="1386" name="topleft"/>
  <outline>
    <contour>
      <point x="1152" y="1178" type="curve"/>
      <point x="1200" y="1401" type="line"/>
      <point x="1166" y="1413"/>
      <point x="1122" y="1421"/>
      <point x="1068" y="1421" type="curve" smooth="yes"/>
      <point x="894" y="1421"/>
      <point x="816" y="1350"/>
      <point x="753" y="1184" type="curve" smooth="yes"/>
      <point x="604" y="789" type="line"/>
      <point x="385" y="1386" type="line"/>
      <point x="25" y="1386" type="line"/>
      <point x="436" y="518" type="line"/>
      <point x="436" y="0" type="line"/>
      <point x="766" y="0" type="line"/>
      <point x="766" y="520" type="line"/>
      <point x="1017" y="1091" type="line" smooth="yes"/>
      <point x="1047" y="1162"/>
      <point x="1069" y="1184"/>
      <point x="1110" y="1184" type="curve" smooth="yes"/>
      <point x="1128" y="1184"/>
      <point x="1138" y="1182"/>
    </contour>
  </outline>
</glyph>
<glyph name="Sampi" format="2">
  <advance width="1200"/>
  <unicode hex="03E0"/>
  <anchor x="600" y="0" name="bottom"/>
  <anchor x="600" y="1386" name="top"/>
  <outline>
    <contour>
      <point x="908" y="0" type="line"/>
      <point x="1191" y="0" type="line"/>
      <point x="694" y="1386" type="line"/>
      <point x="446" y="1386" type="line"/>
      <point x="560" y="1115" type="line"/>
    </contour>
    <contour>
      <point x="9" y="0" type="line"/>
      <point x="304" y="0" type="line"/>
      <point x="698" y="1227" type="line"/>
      <point x="503" y="1281" type="line"/>
    </contour>
    <contour>
      <point x="426" y="2" type="line"/>
      <point x="627" y="0" type="line"/>
      <point x="855" y="796" type="line"/>
      <point x="675" y="818" type="line"/>
    </contour>
  </outline>
</glyph>
<glyph name="rhoSymbol" format="2">
  <advance width="1200"/>
  <unicode hex="03F1"/>
  <anchor x="600" y="-443" name="bottom"/>
  <anchor x="600" y="1062" name="top"/>
  <outline>
    <contour>
      <point x="741" y="-446" type="curve"/>
      <point x="1014" y="-380" type="line"/>
      <point x="978" y="-243"/>
      <point x="890" y="-178"/>
      <point x="698" y="-148" type="curve" smooth="yes"/>
      <point x="509" y="-119"/>
      <point x="451" y="-89"/>
      <point x="451" y="32" type="curve"/>
      <point x="135" y="75" type="line"/>
      <point x="135" y="-198"/>
      <point x="263" y="-310"/>
      <point x="501" y="-344" type="curve" smooth="yes"/>
      <point x="681" y="-370"/>
      <point x="715" y="-384"/>
    </contour>
    <contour>
      <point x="416" y="222" type="line"/>
      <point x="493" y="88"/>
      <point x="594" y="42"/>
      <point x="704" y="42" type="curve" smooth="yes"/>
      <point x="957" y="42"/>
      <point x="1116" y="288"/>
      <point x="1116" y="578" type="curve" smooth="yes"/>
      <point x="1116" y="903"/>
      <point x="937" y="1097"/>
      <point x="620" y="1097" type="curve" smooth="yes"/>
      <point x="295" y="1097"/>
      <point x="135" y="902"/>
      <point x="135" y="550" type="curve" smooth="yes"/>
      <point x="135" y="75" type="line"/>
      <point x="451" y="32" type="line"/>
      <point x="451" y="520" type="line" smooth="yes"/>
      <point x="451" y="761"/>
      <point x="498" y="866"/>
      <point x="624" y="866" type="curve" smooth="yes"/>
      <point x="720" y="866"/>
      <point x="788" y="793"/>
      <point x="788" y="574" type="curve" smooth="yes"/>
      <point x="788" y="375"/>
      <point x="716" y="274"/>
      <point x="612" y="274" type="curve" smooth="yes"/>
      <point x="537" y="274"/>
      <point x="478" y="316"/>
      <point x="430" y="427" type="curve"/>
    </contour>
  </outline>
</glyph>
<glyph name="Lje-cy" format="2">
  <advance width="1200"/>
  <unicode hex="0409"/>
  <anchor x="600" y="0" name="bottom"/>
  <anchor x="600" y="1386" name="top"/>
  <outline>
    <contour>
      <point x="728" y="1386" type="line"/>
      <point x="122" y="1386" type="line"/>
      <point x="82" y="644" type="line" smooth="yes"/>
      <point x="61" y="269"/>
      <point x="27" y="197"/>
      <point x="-29" y="148" type="curve"/>
      <point x="88" y="-40" type="line"/>
      <point x="243" y="64"/>
      <point x="315" y="140"/>
      <point x="337" y="608" type="curve" smooth="yes"/>
      <point x="364" y="1178" type="line"/>
      <point x="478" y="1178" type="line"/>
      <point x="478" y="0" type="line"/>
      <point x="730" y="0" type="line" smooth="yes"/>
      <point x="1016" y="0"/>
      <point x="1200" y="147"/>
      <point x="1200" y="471" type="curve" smooth="yes"/>
      <point x="1200" y="775"/>
      <point x="1028" y="919"/>
      <point x="728" y="919" type="curve"/>
    </contour>
    <contour>
      <point x="748" y="713" type="line" smooth="yes"/>
      <point x="879" y="713"/>
      <point x="930" y="625"/>
      <point x="930" y="469" type="curve" smooth="yes"/>
      <point x="930" y="307"/>
      <point x="881" y="212"/>
      <point x="758" y="212" type="curve" smooth="yes"/>
      <point x="728" y="212" type="line"/>
      <point x="728" y="713" type="line"/>
    </contour>
  </outline>
</glyph>
<glyph name="Ze-cy" format="2">
  <advance width="1200"/>
  <unicode hex="0417"/>
  <anchor x="574" y="0" name="bottom"/>
  <anchor x="578" y="1386" name="top"/>
  <outline>
    <contour>
      <point x="566" y="1421" type="curve" smooth="yes"/>
      <point x="359" y="1421"/>
      <point x="183" y="1360"/>
      <point x="49" y="1242" type="curve"/>
      <point x="208" y="1075" type="line"/>
      <point x="296" y="1146"/>
      <point x="408" y="1184"/>
      <point x="533" y="1184" type="curve" smooth="yes"/>
      <point x="677" y="1184"/>
      <point x="761" y="1122"/>
      <point x="761" y="1020" type="curve" smooth="yes"/>
      <point x="761" y="907"/>
      <point x="669" y="851"/>
      <point x="531" y="851" type="curve" smooth="yes"/>
      <point x="338" y="851" type="line"/>
      <point x="301" y="617" type="line"/>
      <point x="531" y="617" type="line" smooth="yes"/>
      <point x="698" y="617"/>
      <point x="797" y="551"/>
      <point x="797" y="410" type="curve" smooth="yes"/>
      <point x="797" y="283"/>
      <point x="696" y="206"/>
      <point x="535" y="206" type="curve" smooth="yes"/>
      <point x="398" y="206"/>
      <point x="280" y="250"/>
      <point x="182" y="332" type="curve"/>
      <point x="14" y="164" type="line"/>
      <point x="135" y="38"/>
      <point x="313" y="-34"/>
      <point x="540" y="-34" type="curve" smooth="yes"/>
      <point x="913" y="-34"/>
      <point x="1125" y="139"/>
      <point x="1125" y="396" type="curve" smooth="yes"/>
      <point x="1125" y="601"/>
      <point x="984" y="716"/>
      <point x="768" y="738" type="curve"/>
      <point x="968" y="778"/>
      <point x="1083" y="882"/>
      <point x="1083" y="1052" type="curve" smooth="yes"/>
      <point x="1083" y="1270"/>
      <point x="879" y="1421"/>
    </contour>
  </outline>
</glyph>
<glyph name="Yeru-cy" format="2">
  <advance width="1200"/>
  <unicode hex="042B"/>
  <anchor x="600" y="0" name="bottom"/>
  <anchor x="600" y="1386" name="top"/>
  <outline>
    <contour>
      <point x="310" y="1386" type="line"/>
      <point x="43" y="1386" type="line"/>
      <point x="43" y="0" type="line"/>
      <point x="333" y="0" type="line" smooth="yes"/>
      <point x="637" y="0"/>
      <point x="837" y="144"/>
      <point x="837" y="473" type="curve" smooth="yes"/>
      <point x="837" y="776"/>
      <point x="649" y="924"/>
      <point x="329" y="924" type="curve" smooth="yes"/>
      <point x="310" y="924" type="line"/>
    </contour>
    <contour>
      <point x="357" y="703" type="line" smooth="yes"/>
      <point x="490" y="703"/>
      <point x="557" y="628"/>
      <point x="557" y="471" type="curve" smooth="yes"/>
      <point x="557" y="282"/>
      <point x="477" y="226"/>
      <point x="337" y="226" type="curve" smooth="yes"/>
      <point x="310" y="226" type="line"/>
      <point x="310" y="703" type="line"/>
    </contour>
    <contour>
      <point x="1157" y="1386" type="line"/>
      <point x="890" y="1386" type="line"/>
      <point x="890" y="0" type="line"/>
      <point x="1157" y="0" type="line"/>
    </contour>
  </outline>
</glyph>
<glyph name="Softsign-cy" format="2">
  <advance width="1200"/>
  <unicode hex="042C"/>
  <anchor x="600" y="0" name="bottom"/>
  <anchor x="600" y="1386" name="top"/>
  <outline>
    <contour>
      <point x="438" y="1386" type="line"/>
      <point x="110" y="1386" type="line"/>
      <point x="110" y="0" type="line"/>
      <point x="595" y="0" type="line" smooth="yes"/>
      <point x="931" y="0"/>
      <point x="1153" y="151"/>
      <point x="1153" y="471" type="curve" smooth="yes"/>
      <point x="1153" y="777"/>
      <point x="935" y="919"/>
      <point x="574" y="919" type="curve" smooth="yes"/>
      <point x="438" y="919" type="line"/>
    </contour>
    <contour>
      <point x="563" y="685" type="line" smooth="yes"/>
      <point x="733" y="685"/>
      <point x="815" y="619"/>
      <point x="815" y="469" type="curve" smooth="yes"/>
      <point x="815" y="307"/>
      <point x="729" y="239"/>
      <point x="574" y="239" type="curve" smooth="yes"/>
      <point x="438" y="239" type="line"/>
      <point x="438" y="685" type="line"/>
    </contour>
  </outline>
</glyph>
<glyph name="de-cy" format="2">
  <advance width="1200"/>
  <unicode hex="0434"/>
  <anchor x="600" y="-443" name="bottom"/>
  <anchor x="600" y="1062" name="top"/>
  <outline>
    <contour>
      <point x="1045" y="1062" type="line"/>
      <point x="269" y="1062" type="line"/>
      <point x="241" y="722" type="line" smooth="yes"/>
      <point x="215" y="396"/>
      <point x="181" y="304"/>
      <point x="110" y="233" type="curve"/>
      <point x="270" y="0" type="line"/>
      <point x="902" y="0" type="line"/>
      <point x="1045" y="233" type="line"/>
    </contour>
    <contour>
      <point x="750" y="842" type="line"/>
      <point x="750" y="233" type="line"/>
      <point x="369" y="233" type="line"/>
      <point x="474" y="312"/>
      <point x="512" y="400"/>
      <point x="540" y="734" type="curve" smooth="yes"/>
      <point x="548" y="842" type="line"/>
    </contour>
    <component base="descStraight-cy" xScale="-1" xOffset="789"/>
    <component base="descStraight-cy" xOffset="384"/>
  </outline>
</glyph>
<glyph name="ii-cy" format="2">
  <advance width="1200"/>
  <unicode hex="0438"/>
  <anchor x="600" y="0" name="bottom"/>
  <anchor x="1044" y="0" name="bottomright"/>
  <anchor x="600" y="1062" name="top"/>
  <outline>
    <contour>
      <point x="1060" y="1062" type="line"/>
      <point x="732" y="1062" type="line"/>
      <point x="383" y="274" type="line"/>
      <point x="418" y="401"/>
      <point x="438" y="560"/>
      <point x="438" y="720" type="curve" smooth="yes"/>
      <point x="438" y="1062" type="line"/>
      <point x="140" y="1062" type="line"/>
      <point x="140" y="0" type="line"/>
      <point x="466" y="0" type="line"/>
      <point x="815" y="786" type="line"/>
      <point x="784" y="673"/>
      <point x="762" y="518"/>
      <point x="762" y="338" type="curve" smooth="yes"/>
      <point x="762" y="0" type="line"/>
      <point x="1060" y="0" type="line"/>
    </contour>
  </outline>
</glyph>
<glyph name="pe-cy" format="2">
  <advance width="1200"/>
  <unicode hex="043F"/>
  <anchor x="600" y="0" name="bottom"/>
  <anchor x="1080" y="0" name="bottomright"/>
  <anchor x="600" y="1062" name="top"/>
  <outline>
    <contour>
      <point x="746" y="0" type="line"/>
      <point x="1060" y="0" type="line"/>
      <point x="1060" y="1062" type="line"/>
      <point x="140" y="1062" type="line"/>
      <point x="140" y="0" type="line"/>
      <point x="454" y="0" type="line"/>
      <point x="454" y="828" type="line"/>
      <point x="746" y="828" type="line"/>
    </contour>
  </outline>
</glyph>
<glyph name="ereversed-cy" format="2">
  <advance width="1200"/>
  <unicode hex="044D"/>
  <anchor x="600" y="0" name="bottom"/>
  <anchor x="602" y="1062" name="top"/>
  <outline>
    <contour>
      <point x="554" y="1097" type="curve" smooth="yes"/>
      <point x="379" y="1097"/>
      <point x="269" y="1055"/>
      <point x="151" y="968" type="curve"/>
      <point x="286" y="793" type="line"/>
      <point x="362" y="842"/>
      <point x="435" y="868"/>
      <point x="529" y="868" type="curve" smooth="yes"/>
      <point x="660" y="868"/>
      <point x="739" y="799"/>
      <point x="757" y="641" type="curve"/>
      <point x="368" y="641" type="line"/>
      <point x="368" y="443" type="line"/>
      <point x="761" y="443" type="line"/>
      <point x="741" y="263"/>
      <point x="654" y="196"/>
      <point x="519" y="196" type="curve" smooth="yes"/>
      <point x="423" y="196"/>
      <point x="354" y="218"/>
      <point x="278" y="272" type="curve"/>
      <point x="137" y="104" type="line"/>
      <point x="241" y="10"/>
      <point x="363" y="-34"/>
      <point x="527" y="-34" type="curve" smooth="yes"/>
      <point x="880" y="-34"/>
      <point x="1081" y="196"/>
      <point x="1081" y="528" type="curve" smooth="yes"/>
      <point x="1081" y="864"/>
      <point x="888" y="1097"/>
    </contour>
  </outline>
</glyph>
<glyph name="yat-cy" format="2">
  <advance width="1200"/>
  <unicode hex="0463"/>
  <anchor x="600" y="0" name="bottom"/>
  <anchor x="356" y="1304" name="top"/>
  <outline>
    <contour>
      <point x="514" y="1347" type="line"/>
      <point x="198" y="1315" type="line"/>
      <point x="198" y="1095" type="line"/>
      <point x="71" y="1095" type="line"/>
      <point x="71" y="911" type="line"/>
      <point x="198" y="911" type="line"/>
      <point x="198" y="0" type="line"/>
      <point x="666" y="0" type="line" smooth="yes"/>
      <point x="964" y="0"/>
      <point x="1123" y="129"/>
      <point x="1123" y="372" type="curve" smooth="yes"/>
      <point x="1123" y="618"/>
      <point x="954" y="737"/>
      <point x="614" y="737" type="curve" smooth="yes"/>
      <point x="514" y="737" type="line"/>
      <point x="514" y="911" type="line"/>
      <point x="753" y="911" type="line"/>
      <point x="780" y="1095" type="line"/>
      <point x="514" y="1095" type="line"/>
    </contour>
    <contour>
      <point x="616" y="529" type="line" smooth="yes"/>
      <point x="741" y="529"/>
      <point x="797" y="483"/>
      <point x="797" y="378" type="curve" smooth="yes"/>
      <point x="797" y="258"/>
      <point x="735" y="218"/>
      <point x="626" y="218" type="curve" smooth="yes"/>
      <point x="514" y="218" type="line"/>
      <point x="514" y="529" type="line"/>
    </contour>
  </outline>
</glyph>
<glyph name="Yuslittle-cy" format="2">
  <advance width="1200"/>
  <unicode hex="0466"/>
  <anchor x="600" y="0" name="bottom"/>
  <anchor x="600" y="1386" name="top"/>
  <outline>
    <contour>
      <point x="-22" y="0" type="line"/>
      <point x="282" y="0" type="line"/>
      <point x="596" y="1208" type="line"/>
      <point x="912" y="0" type="line"/>
      <point x="1224" y="0" type="line"/>
      <point x="800" y="1386" type="line"/>
      <point x="402" y="1386" type="line"/>
    </contour>
    <contour>
      <point x="481" y="-2" type="line"/>
      <point x="721" y="-2" type="line"/>
      <point x="721" y="523" type="line"/>
      <point x="481" y="523" type="line"/>
    </contour>
    <contour>
      <point x="399" y="488" type="line"/>
      <point x="799" y="488" type="line"/>
      <point x="741" y="714" type="line"/>
      <point x="457" y="714" type="line"/>
    </contour>
  </outline>
</glyph>
<glyph name="yuslittle-cy" format="2">
  <advance width="1200"/>
  <unicode hex="0467"/>
  <anchor x="600" y="0" name="bottom"/>
  <anchor x="600" y="1062" name="top"/>
  <outline>
    <contour>
      <point x="799" y="1062" type="line"/>
      <point x="403" y="1062" type="line"/>
      <point x="33" y="0" type="line"/>
      <point x="318" y="0" type="line"/>
      <point x="590" y="920" type="line"/>
      <point x="882" y="0" type="line"/>
      <point x="1167" y="0" type="line"/>
    </contour>
    <contour>
      <point x="788" y="565" type="line"/>
      <point x="406" y="565" type="line"/>
      <point x="406" y="363" type="line"/>
      <point x="788" y="363" type="line"/>
    </contour>
    <contour>
      <point x="485" y="385" type="line"/>
      <point x="485" y="0" type="line"/>
      <point x="709" y="0" type="line"/>
      <point x="709" y="385" type="line"/>
    </contour>
  </outline>
</glyph>
<glyph name="yuslittleiotified-cy" format="2">
  <advance width="1200"/>
  <unicode hex="0469"/>
  <anchor x="600" y="0" name="bottom"/>
  <anchor x="600" y="1062" name="top"/>
  <outline>
    <contour>
      <point x="678" y="0" type="line"/>
      <point x="867" y="0" type="line"/>
      <point x="867" y="379" type="line"/>
      <point x="678" y="379" type="line"/>
    </contour>
    <contour>
      <point x="28" y="0" type="line"/>
      <point x="274" y="0" type="line"/>
      <point x="274" y="357" type="line"/>
      <point x="966" y="357" type="line"/>
      <point x="966" y="546" type="line"/>
      <point x="274" y="546" type="line"/>
      <point x="274" y="1062" type="line"/>
      <point x="28" y="1062" type="line"/>
    </contour>
    <contour>
      <point x="311" y="0" type="line"/>
      <point x="543" y="0" type="line"/>
      <point x="774" y="920" type="line"/>
      <point x="1014" y="0" type="line"/>
      <point x="1244" y="0" type="line"/>
      <point x="942" y="1062" type="line"/>
      <point x="604" y="1062" type="line"/>
    </contour>
  </outline>
</glyph>
<glyph name="Yusbig-cy" format="2">
  <advance width="1200"/>
  <unicode hex="046A"/>
  <anchor x="600" y="0" name="bottom"/>
  <anchor x="600" y="1386" name="top"/>
  <outline>
    <contour>
      <point x="6" y="0" type="line"/>
      <point x="265" y="0" type="line"/>
      <point x="416" y="620" type="line"/>
      <point x="475" y="620" type="line"/>
      <point x="475" y="0" type="line"/>
      <point x="725" y="0" type="line"/>
      <point x="725" y="620" type="line"/>
      <point x="781" y="620" type="line"/>
      <point x="931" y="0" type="line"/>
      <point x="1194" y="0" type="line"/>
      <point x="963" y="803" type="line"/>
      <point x="230" y="803" type="line"/>
    </contour>
    <contour>
      <point x="449" y="658" type="line"/>
      <point x="743" y="660" type="line"/>
      <point x="1051" y="1207" type="line"/>
      <point x="1051" y="1386" type="line"/>
      <point x="881" y="1386" type="line"/>
      <point x="598" y="803" type="line"/>
      <point x="302" y="1386" type="line"/>
      <point x="133" y="1386" type="line"/>
      <point x="133" y="1207" type="line"/>
    </contour>
    <contour>
      <point x="248" y="1201" type="line"/>
      <point x="986" y="1201" type="line"/>
      <point x="986" y="1386" type="line"/>
      <point x="295" y="1386" type="line"/>
    </contour>
  </outline>
</glyph>
<glyph name="yusbigiotified-cy" format="2">
  <advance width="1200"/>
  <unicode hex="046D"/>
  <anchor x="600" y="0" name="bottom"/>
  <anchor x="600" y="1062" name="top"/>
  <outline>
    <contour>
      <point x="-2" y="0" type="line"/>
      <point x="246" y="0" type="line"/>
      <point x="246" y="419" type="line"/>
      <point x="490" y="419" type="line"/>
      <point x="490" y="610" type="line"/>
      <point x="246" y="610" type="line"/>
      <point x="246" y="1062" type="line"/>
      <point x="-2" y="1062" type="line"/>
    </contour>
    <contour>
      <point x="643" y="477" type="line"/>
      <point x="904" y="477" type="line"/>
      <point x="1176" y="913" type="line"/>
      <point x="1176" y="1062" type="line"/>
      <point x="1008" y="1062" type="line"/>
      <point x="776" y="610" type="line"/>
      <point x="539" y="1062" type="line"/>
      <point x="371" y="1062" type="line"/>
      <point x="371" y="913" type="line"/>
    </contour>
    <contour>
      <point x="530" y="891" type="line"/>
      <point x="1007" y="891" type="line"/>
      <point x="1026" y="1062" type="line"/>
      <point x="510" y="1062" type="line"/>
    </contour>
    <contour>
      <point x="296" y="0" type="line"/>
      <point x="536" y="0" type="line"/>
      <point x="602" y="419" type="line"/>
      <point x="670" y="419" type="line"/>
      <point x="670" y="0" type="line"/>
      <point x="899" y="0" type="line"/>
      <point x="899" y="419" type="line"/>
      <point x="961" y="419" type="line"/>
      <point x="1025" y="0" type="line"/>
      <point x="1265" y="0" type="line"/>
      <point x="1119" y="610" type="line"/>
      <point x="444" y="610" type="line"/>
    </contour>
  </outline>
</glyph>
<glyph name="izhitsa-cy" format="2">
  <advance width="1200"/>
  <unicode hex="0475"/>
  <anchor x="600" y="0" name="bottom"/>
  <anchor x="586" y="1062" name="top"/>
  <outline>
    <contour>
      <point x="381" y="0" type="line"/>
      <point x="752" y="0" type="line"/>
      <point x="994" y="840" type="line" smooth="yes"/>
      <point x="1010" y="896"/>
      <point x="1032" y="913"/>
      <point x="1064" y="913" type="curve" smooth="yes"/>
      <point x="1084" y="913"/>
      <point x="1102" y="909"/>
      <point x="1113" y="905" type="curve"/>
      <point x="1165" y="1129" type="line"/>
      <point x="1117" y="1144"/>
      <point x="1067" y="1154"/>
      <point x="1001" y="1154" type="curve" smooth="yes"/>
      <point x="840" y="1154"/>
      <point x="748" y="1080"/>
      <point x="703" y="874" type="curve" smooth="yes"/>
      <point x="570" y="242" type="line"/>
      <point x="380" y="1062" type="line"/>
      <point x="38" y="1062" type="line"/>
    </contour>
  </outline>
</glyph>
<glyph name="uk-cy" format="2">
  <advance width="1200"/>
  <unicode hex="0479"/>
  <outline>
    <contour>
      <point x="721" y="-445" type="line"/>
      <point x="878" y="-408"/>
      <point x="1029" y="-295"/>
      <point x="1071" y="0" type="curve" smooth="yes"/>
      <point x="1224" y="1062" type="line"/>
      <point x="1030" y="1062" type="line"/>
      <point x="939" y="202" type="line"/>
      <point x="858" y="1062" type="line"/>
      <point x="658" y="1062" type="line"/>
      <point x="800" y="0" type="line"/>
      <point x="899" y="0" type="line"/>
      <point x="871" y="-176"/>
      <point x="802" y="-248"/>
      <point x="676" y="-300" type="curve"/>
    </contour>
    <contour>
      <point x="320" y="-34" type="curve" smooth="yes"/>
      <point x="545" y="-34"/>
      <point x="651" y="179"/>
      <point x="651" y="534" type="curve" smooth="yes"/>
      <point x="651" y="874"/>
      <point x="547" y="1097"/>
      <point x="320" y="1097" type="curve" smooth="yes"/>
      <point x="113" y="1097"/>
      <point x="-12" y="869"/>
      <point x="-12" y="532" type="curve" smooth="yes"/>
      <point x="-12" y="175"/>
      <point x="113" y="-34"/>
    </contour>
    <contour>
      <point x="320" y="130" type="curve" smooth="yes"/>
      <point x="231" y="130"/>
      <point x="191" y="238"/>
      <point x="191" y="532" type="curve" smooth="yes"/>
      <point x="191" y="822"/>
      <point x="231" y="932"/>
      <point x="320" y="932" type="curve" smooth="yes"/>
      <point x="408" y="932"/>
      <point x="448" y="826"/>
      <point x="448" y="534" type="curve" smooth="yes"/>
      <point x="448" y="238"/>
      <point x="408" y="130"/>
    </contour>
  </outline>
</glyph>
<glyph name="Semisoftsign-cy" format="2">
  <advance width="1200"/>
  <unicode hex="048C"/>
  <anchor x="600" y="0" name="bottom"/>
  <anchor x="600" y="1386" name="top"/>
  <outline>
    <contour>
      <point x="172" y="0" type="line"/>
      <point x="637" y="0" type="line" smooth="yes"/>
      <point x="934" y="0"/>
      <point x="1156" y="151"/>
      <point x="1156" y="460" type="curve" smooth="yes"/>
      <point x="1156" y="745"/>
      <point x="938" y="887"/>
      <point x="616" y="887" type="curve" smooth="yes"/>
      <point x="468" y="887" type="line"/>
      <point x="468" y="654" type="line"/>
      <point x="605" y="654" type="line" smooth="yes"/>
      <point x="736" y="654"/>
      <point x="818" y="588"/>
      <point x="818" y="457" type="curve" smooth="yes"/>
      <point x="818" y="307"/>
      <point x="732" y="239"/>
      <point x="616" y="239" type="curve" smooth="yes"/>
      <point x="500" y="239" type="line"/>
      <point x="500" y="1386" type="line"/>
      <point x="172" y="1386" type="line"/>
    </contour>
    <contour>
      <point x="60" y="1043" type="line"/>
      <point x="739" y="1043" type="line"/>
      <point x="739" y="1225" type="line"/>
      <point x="172" y="1225" type="line"/>
      <point x="60" y="1225" type="line"/>
    </contour>
  </outline>
</glyph>
<glyph name="ghestroke-cy" format="2">
  <advance width="1200"/>
  <unicode hex="0493"/>
  <anchor x="454" y="0" name="bottom"/>
  <anchor x="632" y="0" name="bottomright"/>
  <anchor x="728" y="1062" name="top"/>
  <outline>
    <contour>
      <point x="845" y="623" type="line"/>
      <point x="296" y="623" type="line"/>
      <point x="145" y="623" type="line"/>
      <point x="145" y="425" type="line"/>
      <point x="845" y="425" type="line"/>
    </contour>
    <component base="ge-cy" xOffset="52"/>
  </outline>
</glyph>
<glyph name="Cheverticalstroke-cy" format="2">
  <advance width="1200"/>
  <unicode hex="04B8"/>
  <anchor x="600" y="0" name="bottom"/>
  <anchor x="748" y="0" name="bottomleft"/>
  <anchor x="1116" y="0" name="bottomright"/>
  <anchor x="572" y="1386" name="top"/>
  <outline>
    <contour>
      <point x="650" y="1109" type="line"/>
      <point x="518" y="1109" type="line"/>
      <point x="518" y="645" type="line"/>
      <point x="518" y="250" type="line"/>
      <point x="650" y="250" type="line"/>
    </contour>
    <component base="Che-cy"/>
  </outline>
</glyph>
<glyph name="shha-cy" format="2">
  <advance width="1200"/>
  <unicode hex="04BB"/>
  <anchor x="600" y="0" name="bottom"/>
  <anchor x="1076" y="0" name="bottomright"/>
  <anchor x="600" y="1484" name="top"/>
  <outline>
    <contour>
      <point x="740" y="0" type="line"/>
      <point x="1056" y="0" type="line"/>
      <point x="1056" y="655" type="line" smooth="yes"/>
      <point x="1056" y="875"/>
      <point x="944" y="991"/>
      <point x="752" y="991" type="curve" smooth="yes"/>
      <point x="623" y="991"/>
      <point x="509" y="930"/>
      <point x="435" y="833" type="curve"/>
      <point x="436" y="622" type="line"/>
      <point x="493" y="699"/>
      <point x="557" y="758"/>
      <point x="638" y="758" type="curve" smooth="yes"/>
      <point x="707" y="758"/>
      <point x="740" y="727"/>
      <point x="740" y="635" type="curve" smooth="yes"/>
    </contour>
    <contour>
      <point x="144" y="0" type="line"/>
      <point x="460" y="0" type="line"/>
      <point x="460" y="1515" type="line"/>
      <point x="144" y="1484" type="line"/>
    </contour>
  </outline>
</glyph>
<glyph name="eltail-cy" format="2">
  <advance width="1200"/>
  <unicode hex="04C6"/>
  <outline>
    <contour>
      <point x="983" y="1062" type="line"/>
      <point x="222" y="1062" type="line"/>
      <point x="194" y="688" type="line" smooth="yes"/>
      <point x="165" y="301"/>
      <point x="118" y="232"/>
      <point x="16" y="160" type="curve"/>
      <point x="148" y="-40" type="line"/>
      <point x="396" y="82"/>
      <point x="468" y="215"/>
      <point x="494" y="700" type="curve" smooth="yes"/>
      <point x="501" y="830" type="line"/>
      <point x="667" y="830" type="line"/>
      <point x="667" y="0" type="line"/>
      <point x="983" y="0" type="line"/>
    </contour>
    <component base="descTail-cy" xOffset="613"/>
  </outline>
</glyph>
<glyph name="Emtail-cy" format="2">
  <advance width="1200"/>
  <unicode hex="04CD"/>
  <outline>
    <contour>
      <point x="1015" y="1386" type="line"/>
      <point x="678" y="1386" type="line"/>
      <point x="571" y="490" type="line"/>
      <point x="457" y="1386" type="line"/>
      <point x="120" y="1386" type="line"/>
      <point x="42" y="0" type="line"/>
      <point x="323" y="0" type="line"/>
      <point x="333" y="588" type="line" smooth="yes"/>
      <point x="338" y="810"/>
      <point x="330" y="932"/>
      <point x="314" y="1120" type="curve"/>
      <point x="442" y="236" type="line"/>
      <point x="690" y="236" type="line"/>
      <point x="809" y="1120" type="line"/>
      <point x="793" y="922"/>
      <point x="783" y="813"/>
      <point x="790" y="593" type="curve" smooth="yes"/>
      <point x="806" y="0" type="line"/>
      <point x="1093" y="0" type="line"/>
    </contour>
    <contour>
      <point x="1261" y="304" type="line"/>
      <point x="860" y="304" type="line"/>
      <point x="864" y="0" type="line"/>
      <point x="910" y="0" type="line"/>
      <point x="830" y="-349" type="line"/>
      <point x="1062" y="-349" type="line"/>
    </contour>
  </outline>
</glyph>
<glyph name="dzeabkhasian-cy" format="2">
  <advance width="1200"/>
  <unicode hex="04E1"/>
  <outline>
    <contour>
      <point x="540" y="-443" type="curve" smooth="yes"/>
      <point x="877" y="-443"/>
      <point x="1089" y="-234"/>
      <point x="1089" y="35" type="curve" smooth="yes"/>
      <point x="1089" y="301"/>
      <point x="891" y="429"/>
      <point x="648" y="429" type="curve" smooth="yes"/>
      <point x="597" y="429" type="line"/>
      <point x="302" y="229" type="line"/>
      <point x="513" y="229" type="line" smooth="yes"/>
      <point x="652" y="229"/>
      <point x="760" y="177"/>
      <point x="760" y="18" type="curve" smooth="yes"/>
      <point x="760" y="-133"/>
      <point x="664" y="-210"/>
      <point x="523" y="-210" type="curve" smooth="yes"/>
      <point x="392" y="-210"/>
      <point x="308" y="-166"/>
      <point x="222" y="-97" type="curve"/>
      <point x="71" y="-271" type="line"/>
      <point x="181" y="-368"/>
      <point x="305" y="-443"/>
    </contour>
    <contour>
      <point x="302" y="422" type="line"/>
      <point x="302" y="229" type="line"/>
      <point x="521" y="309" type="line"/>
      <point x="1025" y="848" type="line"/>
      <point x="1025" y="1062" type="line"/>
      <point x="137" y="1062" type="line"/>
      <point x="137" y="828" type="line"/>
      <point x="677" y="828" type="line"/>
    </contour>
  </outline>
</glyph>
<glyph name="Hahook-cy" format="2">
  <advance width="1200"/>
  <unicode hex="04FC"/>
  <anchor x="591" y="0" name="bottom"/>
  <anchor x="1109" y="0" name="bottomright"/>
  <anchor x="591" y="1386" name="top"/>
  <outline>
    <contour>
      <point x="842" y="0" type="line"/>
      <point x="1218" y="0" type="line"/>
      <point x="1218" y="243" type="line"/>
      <point x="842" y="243" type="line"/>
    </contour>
    <component base="X" xOffset="-9"/>
    <component base="hookHELPER.case" xOffset="428"/>
  </outline>
</glyph>
<glyph name="Komidje-cy" format="2">
  <advance width="1200"/>
  <unicode hex="0502"/>
  <anchor x="600" y="0" name="bottom"/>
  <anchor x="600" y="1386" name="top"/>
  <outline>
    <contour>
      <point x="340" y="-30" type="curve" smooth="yes"/>
      <point x="483" y="-30"/>
      <point x="556" y="66"/>
      <point x="630" y="208" type="curve"/>
      <point x="504" y="263" type="line"/>
      <point x="467" y="201"/>
      <point x="435" y="180"/>
      <point x="385" y="180" type="curve" smooth="yes"/>
      <point x="321" y="180"/>
      <point x="270" y="240"/>
      <point x="270" y="421" type="curve" smooth="yes"/>
      <point x="270" y="608"/>
      <point x="331" y="683"/>
      <point x="441" y="683" type="curve" smooth="yes"/>
      <point x="535" y="683" type="line"/>
      <point x="535" y="885" type="line"/>
      <point x="429" y="885" type="line" smooth="yes"/>
      <point x="201" y="885"/>
      <point x="20" y="715"/>
      <point x="20" y="417" type="curve" smooth="yes"/>
      <point x="20" y="122"/>
      <point x="170" y="-30"/>
    </contour>
    <contour>
      <point x="503" y="1017" type="line"/>
      <point x="751" y="1017" type="line"/>
      <point x="751" y="1386" type="line"/>
      <point x="503" y="1386" type="line"/>
    </contour>
    <contour>
      <point x="807" y="-34" type="curve" smooth="yes"/>
      <point x="1043" y="-34"/>
      <point x="1166" y="134"/>
      <point x="1166" y="492" type="curve" smooth="yes"/>
      <point x="1166" y="600"/>
      <point x="1162" y="680"/>
      <point x="1154" y="758" type="curve"/>
      <point x="904" y="758" type="line"/>
      <point x="910" y="678"/>
      <point x="914" y="594"/>
      <point x="914" y="490" type="curve" smooth="yes"/>
      <point x="914" y="274"/>
      <point x="881" y="180"/>
      <point x="817" y="180" type="curve" smooth="yes"/>
      <point x="780" y="180"/>
      <point x="751" y="207"/>
      <point x="751" y="279" type="curve" smooth="yes"/>
      <point x="751" y="1062" type="line"/>
      <point x="503" y="1062" type="line"/>
      <point x="503" y="262" type="line"/>
      <point x="533" y="78"/>
      <point x="637" y="-34"/>
    </contour>
  </outline>
</glyph>
<glyph name="Komizje-cy" format="2">
  <advance width="1200"/>
  <unicode hex="0504"/>
  <anchor x="600" y="0" name="bottom"/>
  <anchor x="600" y="1386" name="top"/>
  <outline>
    <contour>
      <point x="763" y="-34" type="curve" smooth="yes"/>
      <point x="1021" y="-34"/>
      <point x="1168" y="134"/>
      <point x="1168" y="512" type="curve" smooth="yes"/>
      <point x="1168" y="600"/>
      <point x="1164" y="680"/>
      <point x="1156" y="758" type="curve"/>
      <point x="853" y="758" type="line"/>
      <point x="859" y="678"/>
      <point x="863" y="594"/>
      <point x="863" y="510" type="curve" smooth="yes"/>
      <point x="863" y="286"/>
      <point x="828" y="211"/>
      <point x="761" y="211" type="curve" smooth="yes"/>
      <point x="720" y="211"/>
      <point x="693" y="230"/>
      <point x="664" y="290" type="curve" smooth="yes"/>
      <point x="508" y="613" type="line"/>
      <point x="206" y="558" type="line"/>
      <point x="358" y="233" type="line" smooth="yes"/>
      <point x="440" y="58"/>
      <point x="556" y="-34"/>
    </contour>
    <contour>
      <point x="73" y="530" type="line"/>
      <point x="228" y="530" type="line"/>
      <point x="472" y="573" type="line"/>
      <point x="643" y="632"/>
      <point x="779" y="754"/>
      <point x="779" y="965" type="curve" smooth="yes"/>
      <point x="779" y="1252"/>
      <point x="588" y="1386"/>
      <point x="211" y="1386" type="curve" smooth="yes"/>
      <point x="32" y="1386" type="line"/>
      <point x="32" y="1160" type="line"/>
      <point x="211" y="1160" type="line" smooth="yes"/>
      <point x="365" y="1160"/>
      <point x="443" y="1102"/>
      <point x="443" y="965" type="curve" smooth="yes"/>
      <point x="443" y="814"/>
      <point x="366" y="751"/>
      <point x="225" y="751" type="curve" smooth="yes"/>
      <point x="73" y="751" type="line"/>
    </contour>
  </outline>
</glyph>
<glyph name="kominje-cy" format="2">
  <advance width="1200"/>
  <unicode hex="050B"/>
  <anchor x="600" y="0" name="bottom"/>
  <anchor x="600" y="1062" name="top"/>
  <outline>
    <contour>
      <point x="488" y="388" type="line"/>
      <point x="759" y="388" type="line"/>
      <point x="759" y="1062" type="line"/>
      <point x="488" y="1062" type="line"/>
      <point x="488" y="651" type="line"/>
      <point x="320" y="651" type="line"/>
      <point x="320" y="1062" type="line"/>
      <point x="49" y="1062" type="line"/>
      <point x="49" y="0" type="line"/>
      <point x="320" y="0" type="line"/>
      <point x="320" y="427" type="line"/>
      <point x="488" y="427" type="line"/>
    </contour>
    <contour>
      <point x="815" y="-34" type="curve" smooth="yes"/>
      <point x="1032" y="-34"/>
      <point x="1192" y="134"/>
      <point x="1192" y="512" type="curve" smooth="yes"/>
      <point x="1192" y="600"/>
      <point x="1188" y="680"/>
      <point x="1180" y="758" type="curve"/>
      <point x="909" y="758" type="line"/>
      <point x="917" y="678"/>
      <point x="921" y="594"/>
      <point x="921" y="510" type="curve" smooth="yes"/>
      <point x="921" y="272"/>
      <point x="885" y="178"/>
      <point x="819" y="178" type="curve" smooth="yes"/>
      <point x="782" y="178"/>
      <point x="759" y="207"/>
      <point x="759" y="262" type="curve" smooth="yes"/>
      <point x="759" y="723" type="line"/>
      <point x="488" y="632" type="line"/>
      <point x="488" y="319" type="line" smooth="yes"/>
      <point x="488" y="90"/>
      <point x="628" y="-34"/>
    </contour>
  </outline>
</glyph>
<glyph name="komisje-cy" format="2">
  <advance width="1200"/>
  <unicode hex="050D"/>
  <outline>
    <contour>
      <point x="642" y="1097" type="curve" smooth="yes"/>
      <point x="356" y="1097"/>
      <point x="103" y="889"/>
      <point x="103" y="520" type="curve" smooth="yes"/>
      <point x="103" y="150"/>
      <point x="301" y="-36"/>
      <point x="618" y="-36" type="curve" smooth="yes"/>
      <point x="813" y="-36"/>
      <point x="949" y="20"/>
      <point x="1060" y="84" type="curve"/>
      <point x="1060" y="619" type="line"/>
      <point x="622" y="619" type="line"/>
      <point x="657" y="413" type="line"/>
      <point x="764" y="413" type="line"/>
      <point x="764" y="220" type="line"/>
      <point x="729" y="208"/>
      <point x="686" y="194"/>
      <point x="618" y="194" type="curve" smooth="yes"/>
      <point x="496" y="194"/>
      <point x="429" y="292"/>
      <point x="429" y="518" type="curve" smooth="yes"/>
      <point x="429" y="754"/>
      <point x="511" y="864"/>
      <point x="661" y="864" type="curve" smooth="yes"/>
      <point x="744" y="864"/>
      <point x="808" y="832"/>
      <point x="890" y="776" type="curve"/>
      <point x="1031" y="954" type="line"/>
      <point x="931" y="1036"/>
      <point x="817" y="1097"/>
    </contour>
  </outline>
</glyph>
<glyph name="komitje-cy" format="2">
  <advance width="1200"/>
  <unicode hex="050F"/>
  <anchor x="600" y="0" name="bottom"/>
  <anchor x="600" y="1062" name="top"/>
  <outline>
    <contour>
      <point x="651" y="-34" type="curve" smooth="yes"/>
      <point x="917" y="-34"/>
      <point x="1113" y="134"/>
      <point x="1113" y="453" type="curve" smooth="yes"/>
      <point x="1113" y="561"/>
      <point x="1109" y="641"/>
      <point x="1102" y="719" type="curve"/>
      <point x="799" y="719" type="line"/>
      <point x="807" y="639"/>
      <point x="811" y="555"/>
      <point x="811" y="451" type="curve" smooth="yes"/>
      <point x="811" y="270"/>
      <point x="746" y="190"/>
      <point x="663" y="190" type="curve" smooth="yes"/>
      <point x="609" y="190"/>
      <point x="578" y="225"/>
      <point x="578" y="293" type="curve" smooth="yes"/>
      <point x="578" y="732" type="line"/>
      <point x="262" y="640" type="line"/>
      <point x="262" y="343" type="line" smooth="yes"/>
      <point x="262" y="94"/>
      <point x="424" y="-34"/>
    </contour>
    <contour>
      <point x="262" y="500" type="line"/>
      <point x="578" y="500" type="line"/>
      <point x="578" y="834" type="line"/>
      <point x="850" y="834" type="line"/>
      <point x="887" y="1062" type="line"/>
      <point x="0" y="1062" type="line"/>
      <point x="0" y="834" type="line"/>
      <point x="262" y="834" type="line"/>
    </contour>
  </outline>
</glyph>
<glyph name="Reversedze-cy" format="2">
  <advance width="1200"/>
  <unicode hex="0510"/>
  <outline>
    <contour>
      <point x="646" y="1421" type="curve" smooth="yes"/>
      <point x="341" y="1421"/>
      <point x="117" y="1262"/>
      <point x="117" y="1032" type="curve" smooth="yes"/>
      <point x="117" y="862"/>
      <point x="230" y="774"/>
      <point x="432" y="738" type="curve"/>
      <point x="216" y="714"/>
      <point x="75" y="600"/>
      <point x="75" y="398" type="curve" smooth="yes"/>
      <point x="75" y="138"/>
      <point x="291" y="-34"/>
      <point x="646" y="-34" type="curve" smooth="yes"/>
      <point x="875" y="-34"/>
      <point x="1055" y="40"/>
      <point x="1186" y="164" type="curve"/>
      <point x="1022" y="332" type="line"/>
      <point x="920" y="250"/>
      <point x="802" y="206"/>
      <point x="660" y="206" type="curve" smooth="yes"/>
      <point x="504" y="206"/>
      <point x="403" y="283"/>
      <point x="403" y="410" type="curve" smooth="yes"/>
      <point x="403" y="551"/>
      <point x="502" y="617"/>
      <point x="669" y="617" type="curve" smooth="yes"/>
      <point x="860" y="617" type="line"/>
      <point x="897" y="851" type="line"/>
      <point x="669" y="851" type="line" smooth="yes"/>
      <point x="531" y="851"/>
      <point x="439" y="907"/>
      <point x="439" y="1018" type="curve" smooth="yes"/>
      <point x="439" y="1122"/>
      <point x="529" y="1184"/>
      <point x="673" y="1184" type="curve" smooth="yes"/>
      <point x="798" y="1184"/>
      <point x="904" y="1146"/>
      <point x="992" y="1075" type="curve"/>
      <point x="1151" y="1242" type="line"/>
      <point x="1013" y="1360"/>
      <point x="861" y="1421"/>
    </contour>
  </outline>
</glyph>
<glyph name="Rha-cy" format="2">
  <advance width="1200"/>
  <unicode hex="0516"/>
  <anchor x="600" y="0" name="bottom"/>
  <anchor x="600" y="1386" name="top"/>
  <outline>
    <contour>
      <point x="44" y="0" type="line"/>
      <point x="332" y="0" type="line"/>
      <point x="332" y="1162" type="line"/>
      <point x="383" y="1162" type="line" smooth="yes"/>
      <point x="481" y="1162"/>
      <point x="534" y="1091"/>
      <point x="534" y="934" type="curve" smooth="yes"/>
      <point x="534" y="761"/>
      <point x="476" y="689"/>
      <point x="381" y="689" type="curve" smooth="yes"/>
      <point x="300" y="689" type="line"/>
      <point x="300" y="461" type="line"/>
      <point x="403" y="461" type="line" smooth="yes"/>
      <point x="670" y="461"/>
      <point x="794" y="711"/>
      <point x="794" y="935" type="curve" smooth="yes"/>
      <point x="794" y="1237"/>
      <point x="638" y="1386"/>
      <point x="379" y="1386" type="curve" smooth="yes"/>
      <point x="44" y="1386" type="line"/>
    </contour>
    <contour>
      <point x="904" y="0" type="line"/>
      <point x="1217" y="0" type="line"/>
      <point x="937" y="737" type="line"/>
      <point x="1199" y="1386" type="line"/>
      <point x="938" y="1386" type="line"/>
      <point x="698" y="754" type="line"/>
      <point x="687" y="605" type="line"/>
    </contour>
  </outline>
</glyph>
<glyph name="Elmiddlehook-cy" format="2">
  <advance width="1200"/>
  <unicode hex="0520"/>
  <anchor x="600" y="-443" name="bottom"/>
  <anchor x="600" y="1386" name="top"/>
  <outline>
    <contour>
      <point x="80" y="-40" type="line"/>
      <point x="284" y="98"/>
      <point x="348" y="229"/>
      <point x="380" y="833" type="curve" smooth="yes"/>
      <point x="399" y="1172" type="line"/>
      <point x="507" y="1172" type="line"/>
      <point x="507" y="0" type="line"/>
      <point x="757" y="0" type="line"/>
      <point x="757" y="1386" type="line"/>
      <point x="170" y="1386" type="line"/>
      <point x="142" y="906" type="line" smooth="yes"/>
      <point x="108" y="339"/>
      <point x="64" y="232"/>
      <point x="-35" y="149" type="curve"/>
    </contour>
    <contour>
      <point x="839" y="-453" type="curve" smooth="yes"/>
      <point x="1023" y="-453"/>
      <point x="1162" y="-314"/>
      <point x="1162" y="-91" type="curve" smooth="yes"/>
      <point x="1162" y="2" type="line"/>
      <point x="912" y="2" type="line"/>
      <point x="912" y="-118" type="line" smooth="yes"/>
      <point x="912" y="-216"/>
      <point x="874" y="-253"/>
      <point x="808" y="-253" type="curve" smooth="yes"/>
      <point x="753" y="-253"/>
      <point x="713" y="-233"/>
      <point x="679" y="-211" type="curve"/>
      <point x="576" y="-364" type="line"/>
      <point x="645" y="-415"/>
      <point x="715" y="-453"/>
    </contour>
    <contour>
      <point x="912" y="0" type="line"/>
      <point x="1162" y="0" type="line"/>
      <point x="1162" y="624" type="line" smooth="yes"/>
      <point x="1162" y="799"/>
      <point x="1089" y="921"/>
      <point x="933" y="921" type="curve" smooth="yes"/>
      <point x="807" y="921"/>
      <point x="733" y="846"/>
      <point x="685" y="773" type="curve"/>
      <point x="704" y="612" type="line"/>
      <point x="739" y="659"/>
      <point x="778" y="703"/>
      <point x="837" y="703" type="curve" smooth="yes"/>
      <point x="886" y="703"/>
      <point x="912" y="667"/>
      <point x="912" y="602" type="curve" smooth="yes"/>
    </contour>
  </outline>
</glyph>
<glyph name="elmiddlehook-cy" format="2">
  <advance width="1200"/>
  <unicode hex="0521"/>
  <anchor x="600" y="-443" name="bottom"/>
  <anchor x="600" y="1062" name="top"/>
  <outline>
    <contour>
      <point x="87" y="-40" type="line"/>
      <point x="237" y="63"/>
      <point x="322" y="156"/>
      <point x="349" y="584" type="curve" smooth="yes"/>
      <point x="365" y="838" type="line"/>
      <point x="489" y="838" type="line"/>
      <point x="489" y="0" type="line"/>
      <point x="767" y="0" type="line"/>
      <point x="767" y="1062" type="line"/>
      <point x="121" y="1062" type="line"/>
      <point x="85" y="591" type="line" smooth="yes"/>
      <point x="63" y="301"/>
      <point x="17" y="193"/>
      <point x="-47" y="135" type="curve"/>
    </contour>
    <contour>
      <point x="863" y="-453" type="curve" smooth="yes"/>
      <point x="1068" y="-453"/>
      <point x="1211" y="-316"/>
      <point x="1211" y="-71" type="curve" smooth="yes"/>
      <point x="1211" y="2" type="line"/>
      <point x="936" y="2" type="line"/>
      <point x="936" y="-120" type="line" smooth="yes"/>
      <point x="936" y="-205"/>
      <point x="898" y="-241"/>
      <point x="837" y="-241" type="curve" smooth="yes"/>
      <point x="775" y="-241"/>
      <point x="745" y="-223"/>
      <point x="709" y="-203" type="curve"/>
      <point x="598" y="-364" type="line"/>
      <point x="667" y="-415"/>
      <point x="745" y="-453"/>
    </contour>
    <contour>
      <point x="936" y="0" type="line"/>
      <point x="1211" y="0" type="line"/>
      <point x="1211" y="377" type="line" smooth="yes"/>
      <point x="1211" y="576"/>
      <point x="1102" y="692"/>
      <point x="950" y="692" type="curve" smooth="yes"/>
      <point x="821" y="692"/>
      <point x="747" y="632"/>
      <point x="673" y="536" type="curve"/>
      <point x="693" y="379" type="line"/>
      <point x="749" y="440"/>
      <point x="794" y="474"/>
      <point x="855" y="474" type="curve" smooth="yes"/>
      <point x="908" y="474"/>
      <point x="936" y="444"/>
      <point x="936" y="379" type="curve" smooth="yes"/>
    </contour>
  </outline>
</glyph>
<glyph name="psilioxia" format="2">
  <advance width="1200"/>
  <unicode hex="1FCE"/>
  <anchor x="503" y="1062" name="_top"/>
  <anchor x="999" y="1664" name="_topleft"/>
  <anchor x="545" y="1670" name="top"/>
  <outline>
    <contour>
      <point x="678" y="1672" type="line"/>
      <point x="596" y="1199" type="line"/>
      <point x="770" y="1162" type="line"/>
      <point x="943" y="1602" type="line"/>
    </contour>
    <component base="psili" xOffset="-203" yOffset="-4"/>
  </outline>
</glyph>
<glyph name="psiliperispomeni" format="2">
  <advance width="1200"/>
  <unicode hex="1FCF"/>
  <anchor x="547" y="1062" name="_top"/>
  <anchor x="965" y="1871" name="_topleft"/>
  <anchor x="570" y="1901" name="top"/>
  <outline>
    <contour>
      <point x="473" y="1162" type="line"/>
      <point x="622" y="1162" type="line"/>
      <point x="672" y="1249" type="line" smooth="yes"/>
      <point x="714" y="1324"/>
      <point x="730" y="1365"/>
      <point x="730" y="1417" type="curve" smooth="yes"/>
      <point x="730" y="1504"/>
      <point x="664" y="1572"/>
      <point x="573" y="1572" type="curve" smooth="yes"/>
      <point x="480" y="1572"/>
      <point x="414" y="1502"/>
      <point x="414" y="1417" type="curve" smooth="yes"/>
      <point x="414" y="1357"/>
      <point x="442" y="1316"/>
      <point x="501" y="1284" type="curve"/>
    </contour>
    <component base="perispomeni" xOffset="-25" yOffset="316"/>
  </outline>
</glyph>
<glyph name="dasiaoxia" format="2">
  <advance width="1200"/>
  <unicode hex="1FDE"/>
  <anchor x="570" y="1062" name="_top"/>
  <anchor x="999" y="1664" name="_topleft"/>
  <anchor x="603" y="1674" name="top"/>
  <outline>
    <contour>
      <point x="678" y="1672" type="line"/>
      <point x="596" y="1199" type="line"/>
      <point x="770" y="1162" type="line"/>
      <point x="943" y="1602" type="line"/>
    </contour>
    <component base="dasia" xOffset="-203" yOffset="-4"/>
  </outline>
</glyph>
<glyph name="dasiaperispomeni" format="2">
  <advance width="1200"/>
  <unicode hex="1FDF"/>
  <anchor x="594" y="1062" name="_top"/>
  <anchor x="992" y="1871" name="_topleft"/>
  <anchor x="598" y="1901" name="top"/>
  <outline>
    <contour>
      <point x="694" y="1162" type="line"/>
      <point x="669" y="1286" type="line"/>
      <point x="725" y="1316"/>
      <point x="753" y="1357"/>
      <point x="753" y="1417" type="curve" smooth="yes"/>
      <point x="753" y="1502"/>
      <point x="687" y="1572"/>
      <point x="594" y="1572" type="curve" smooth="yes"/>
      <point x="503" y="1572"/>
      <point x="437" y="1506"/>
      <point x="437" y="1417" type="curve" smooth="yes"/>
      <point x="437" y="1365"/>
      <point x="453" y="1326"/>
      <point x="497" y="1249" type="curve" smooth="yes"/>
      <point x="545" y="1162" type="line"/>
    </contour>
    <component base="perispomeni" yOffset="318"/>
  </outline>
</glyph>
<glyph name="endash" format="2">
  <advance width="1200"/>
  <unicode hex="2013"/>
  <outline>
    <contour>
      <point x="54" y="503" type="line"/>
      <point x="1146" y="503" type="line"/>
      <point x="1146" y="749" type="line"/>
      <point x="54" y="749" type="line"/>
    </contour>
  </outline>
</glyph>
<glyph name="quotesinglbase" format="2">
  <advance width="1200"/>
  <unicode hex="201A"/>
  <outline>
    <contour>
      <point x="417" y="141" type="curve" smooth="yes"/>
      <point x="417" y="74"/>
      <point x="447" y="24"/>
      <point x="495" y="-10" type="curve"/>
      <point x="407" y="-364" type="line"/>
      <point x="585" y="-364" type="line"/>
      <point x="730" y="-67" type="line" smooth="yes"/>
      <point x="776" y="28"/>
      <point x="793" y="82"/>
      <point x="793" y="141" type="curve" smooth="yes"/>
      <point x="793" y="243"/>
      <point x="714" y="322"/>
      <point x="606" y="322" type="curve" smooth="yes"/>
      <point x="499" y="322"/>
      <point x="417" y="243"/>
    </contour>
  </outline>
</glyph>
<glyph name="quotedblright" format="2">
  <advance width="1200"/>
  <unicode hex="201D"/>
  <outline>
    <contour>
      <point x="184" y="1414" type="curve" smooth="yes"/>
      <point x="184" y="1345"/>
      <point x="213" y="1297"/>
      <point x="261" y="1264" type="curve"/>
      <point x="175" y="909" type="line"/>
      <point x="354" y="909" type="line"/>
      <point x="496" y="1205" type="line" smooth="yes"/>
      <point x="542" y="1302"/>
      <point x="560" y="1355"/>
      <point x="560" y="1414" type="curve" smooth="yes"/>
      <point x="560" y="1516"/>
      <point x="480" y="1594"/>
      <point x="373" y="1594" type="curve" smooth="yes"/>
      <point x="267" y="1594"/>
      <point x="184" y="1516"/>
    </contour>
    <contour>
      <point x="649" y="1414" type="curve" smooth="yes"/>
      <point x="649" y="1345"/>
      <point x="680" y="1297"/>
      <point x="728" y="1264" type="curve"/>
      <point x="640" y="909" type="line"/>
      <point x="819" y="909" type="line"/>
      <point x="962" y="1205" type="line" smooth="yes"/>
      <point x="1009" y="1302"/>
      <point x="1025" y="1355"/>
      <point x="1025" y="1414" type="curve" smooth="yes"/>
      <point x="1025" y="1516"/>
      <point x="945" y="1594"/>
      <point x="838" y="1594" type="curve" smooth="yes"/>
      <point x="732" y="1594"/>
      <point x="649" y="1516"/>
    </contour>
  </outline>
</glyph>
<glyph name="daggerdbl" format="2">
  <advance width="1200"/>
  <unicode hex="2021"/>
  <outline>
    <contour>
      <point x="748" y="1358" type="line"/>
      <point x="452" y="1358" type="line"/>
      <point x="452" y="1071" type="line"/>
      <point x="122" y="1071" type="line"/>
      <point x="122" y="816" type="line"/>
      <point x="452" y="816" type="line"/>
      <point x="452" y="546" type="line"/>
      <point x="122" y="546" type="line"/>
      <point x="122" y="289" type="line"/>
      <point x="452" y="289" type="line"/>
      <point x="452" y="0" type="line"/>
      <point x="748" y="0" type="line"/>
      <point x="748" y="289" type="line"/>
      <point x="1078" y="289" type="line"/>
      <point x="1078" y="546" type="line"/>
      <point x="748" y="546" type="line"/>
      <point x="748" y="816" type="line"/>
      <point x="1078" y="816" type="line"/>
      <point x="1078" y="1071" type="line"/>
      <point x="748" y="1071" type="line"/>
    </contour>
  </outline>
</glyph>
<glyph name="guilsinglright" format="2">
  <advance width="1200"/>
  <unicode hex="203A"/>
  <outline>
    <contour>
      <point x="568" y="574" type="line"/>
      <point x="314" y="162" type="line"/>
      <point x="507" y="34" type="line"/>
      <point x="886" y="473" type="line"/>
      <point x="886" y="673" type="line"/>
      <point x="507" y="1113" type="line"/>
      <point x="314" y="984" type="line"/>
    </contour>
  </outline>
</glyph>
<glyph name="tironiansignet" format="2">
  <advance width="1200"/>
  <unicode hex="204A"/>
  <outline>
    <contour>
      <point x="529" y="-474" type="line"/>
      <point x="1045" y="848" type="line"/>
      <point x="1045" y="1062" type="line"/>
      <point x="116" y="1062" type="line"/>
      <point x="116" y="824" type="line"/>
      <point x="725" y="824" type="line"/>
      <point x="229" y="-382" type="line"/>
    </contour>
  </outline>
</glyph>
<glyph name="nmod" format="2">
  <advance width="1200"/>
  <unicode hex="207F"/>
  <outline>
    <contour>
      <point x="701" y="1446" type="curve" smooth="yes"/>
      <point x="631" y="1446"/>
      <point x="571" y="1426"/>
      <point x="517" y="1356" type="curve"/>
      <point x="507" y="1426" type="line"/>
      <point x="303" y="1426" type="line"/>
      <point x="303" y="756" type="line"/>
      <point x="533" y="756" type="line"/>
      <point x="533" y="1209" type="line"/>
      <point x="565" y="1251"/>
      <point x="593" y="1276"/>
      <point x="626" y="1276" type="curve" smooth="yes"/>
      <point x="657" y="1276"/>
      <point x="668" y="1251"/>
      <point x="668" y="1185" type="curve"/>
      <point x="668" y="756" type="line"/>
      <point x="897" y="756" type="line"/>
      <point x="897" y="1240" type="line"/>
      <point x="897" y="1372"/>
      <point x="825" y="1446"/>
    </contour>
  </outline>
</glyph>
<glyph name="literSign" format="2">
  <advance width="1200"/>
  <unicode hex="2113"/>
  <outline>
    <contour>
      <point x="688" y="-34" type="curve" smooth="yes"/>
      <point x="823" y="-34"/>
      <point x="923" y="-2"/>
      <point x="995" y="36" type="curve"/>
      <point x="919" y="247" type="line"/>
      <point x="875" y="229"/>
      <point x="823" y="215"/>
      <point x="769" y="215" type="curve" smooth="yes"/>
      <point x="684" y="215"/>
      <point x="632" y="248"/>
      <point x="632" y="334" type="curve" smooth="yes"/>
      <point x="632" y="1181" type="line" smooth="yes"/>
      <point x="632" y="1280"/>
      <point x="662" y="1321"/>
      <point x="719" y="1321" type="curve" smooth="yes"/>
      <point x="768" y="1321"/>
      <point x="796" y="1287"/>
      <point x="798" y="1209" type="curve" smooth="yes"/>
      <point x="802" y="1004"/>
      <point x="661" y="854"/>
      <point x="378" y="673" type="curve"/>
      <point x="104" y="510" type="line"/>
      <point x="170" y="385" type="line"/>
      <point x="384" y="507" type="line"/>
      <point x="462" y="553" type="line"/>
      <point x="761" y="731"/>
      <point x="1028" y="924"/>
      <point x="1028" y="1219" type="curve" smooth="yes"/>
      <point x="1028" y="1406"/>
      <point x="907" y="1517"/>
      <point x="706" y="1517" type="curve" smooth="yes"/>
      <point x="432" y="1517"/>
      <point x="316" y="1346"/>
      <point x="316" y="1078" type="curve" smooth="yes"/>
      <point x="316" y="373" type="line" smooth="yes"/>
      <point x="316" y="125"/>
      <point x="432" y="-34"/>
    </contour>
  </outline>
</glyph>
<glyph name="arrowright" format="2">
  <advance width="1200"/>
  <unicode hex="2192"/>
  <outline>
    <contour>
      <point x="598" y="1330" type="line"/>
      <point x="391" y="1152" type="line"/>
      <point x="531" y="1000" type="line" smooth="yes"/>
      <point x="614" y="911"/>
      <point x="686" y="840"/>
      <point x="771" y="787" type="curve"/>
      <point x="-3" y="787" type="line"/>
      <point x="-3" y="529" type="line"/>
      <point x="768" y="529" type="line"/>
      <point x="686" y="474"/>
      <point x="611" y="405"/>
      <point x="531" y="316" type="curve" smooth="yes"/>
      <point x="391" y="164" type="line"/>
      <point x="598" y="-14" type="line"/>
      <point x="1203" y="658" type="line"/>
    </contour>
  </outline>
</glyph>
<glyph name="arrowupleft" format="2">
  <advance width="1200"/>
  <unicode hex="2196"/>
  <outline>
    <contour>
      <point x="981" y="82" type="line"/>
      <point x="1178" y="282" type="line"/>
      <point x="477" y="962" type="line"/>
      <point x="545" y="946"/>
      <point x="593" y="938"/>
      <point x="693" y="942" type="curve" smooth="yes"/>
      <point x="1006" y="958" type="line"/>
      <point x="989" y="1214" type="line"/>
      <point x="66" y="1170" type="line"/>
      <point x="22" y="246" type="line"/>
      <point x="304" y="228" type="line"/>
      <point x="319" y="496" type="line" smooth="yes"/>
      <point x="324" y="622"/>
      <point x="309" y="679"/>
      <point x="287" y="759" type="curve"/>
    </contour>
  </outline>
</glyph>
<glyph name="arrowdownright" format="2">
  <advance width="1200"/>
  <unicode hex="2198"/>
  <outline>
    <contour>
      <point x="219" y="1165" type="line"/>
      <point x="22" y="965" type="line"/>
      <point x="723" y="285" type="line"/>
      <point x="655" y="301"/>
      <point x="607" y="309"/>
      <point x="507" y="305" type="curve" smooth="yes"/>
      <point x="194" y="289" type="line"/>
      <point x="211" y="33" type="line"/>
      <point x="1134" y="77" type="line"/>
      <point x="1178" y="1001" type="line"/>
      <point x="896" y="1019" type="line"/>
      <point x="881" y="751" type="line" smooth="yes"/>
      <point x="876" y="625"/>
      <point x="891" y="569"/>
      <point x="913" y="489" type="curve"/>
    </contour>
  </outline>
</glyph>
<glyph name="arrowrightwhite" format="2">
  <advance width="1200"/>
  <unicode hex="21E8"/>
  <outline>
    <contour>
      <point x="684" y="1226" type="line"/>
      <point x="684" y="874" type="line"/>
      <point x="20" y="874" type="line" smooth="yes"/>
      <point x="-40" y="874"/>
      <point x="-80" y="834"/>
      <point x="-80" y="774" type="curve" smooth="yes"/>
      <point x="-80" y="478" type="line"/>
      <point x="-80" y="418"/>
      <point x="-40" y="378"/>
      <point x="20" y="378" type="curve" smooth="yes"/>
      <point x="684" y="378" type="line"/>
      <point x="684" y="26" type="line"/>
      <point x="1280" y="626" type="line"/>
    </contour>
    <contour>
      <point x="774" y="1008" type="line"/>
      <point x="1152" y="626" type="line"/>
      <point x="774" y="244" type="line"/>
      <point x="774" y="466" type="line"/>
      <point x="8" y="466" type="line"/>
      <point x="8" y="786" type="line"/>
      <point x="774" y="786" type="line"/>
    </contour>
  </outline>
</glyph>
<glyph name="partialdiff" format="2">
  <advance width="1200"/>
  <unicode hex="2202"/>
  <outline>
    <contour>
      <point x="287" y="1480" type="curve"/>
      <point x="218" y="1264" type="line"/>
      <point x="536" y="1188"/>
      <point x="707" y="1037"/>
      <point x="764" y="780" type="curve"/>
      <point x="698" y="862"/>
      <point x="610" y="914"/>
      <point x="488" y="914" type="curve" smooth="yes"/>
      <point x="260" y="914"/>
      <point x="102" y="719"/>
      <point x="102" y="447" type="curve" smooth="yes"/>
      <point x="102" y="150"/>
      <point x="300" y="-34"/>
      <point x="584" y="-34" type="curve" smooth="yes"/>
      <point x="913" y="-34"/>
      <point x="1086" y="235"/>
      <point x="1086" y="543" type="curve" smooth="yes"/>
      <point x="1086" y="1054"/>
      <point x="865" y="1361"/>
    </contour>
    <contour>
      <point x="580" y="683" type="curve" smooth="yes"/>
      <point x="653" y="683"/>
      <point x="706" y="651"/>
      <point x="762" y="572" type="curve"/>
      <point x="762" y="500" type="line" smooth="yes"/>
      <point x="760" y="330"/>
      <point x="719" y="190"/>
      <point x="588" y="190" type="curve" smooth="yes"/>
      <point x="479" y="190"/>
      <point x="418" y="283"/>
      <point x="418" y="438" type="curve" smooth="yes"/>
      <point x="418" y="616"/>
      <point x="495" y="683"/>
    </contour>
  </outline>
</glyph>
<glyph name="summation" format="2">
  <advance width="1200"/>
  <unicode hex="2211"/>
  <outline>
    <contour>
      <point x="1058" y="1386" type="line"/>
      <point x="149" y="1386" type="line"/>
      <point x="149" y="1158" type="line"/>
      <point x="545" y="692" type="line"/>
      <point x="149" y="228" type="line"/>
      <point x="149" y="0" type="line"/>
      <point x="1058" y="0" type="line"/>
      <point x="1058" y="238" type="line"/>
      <point x="495" y="238" type="line"/>
      <point x="827" y="628" type="line"/>
      <point x="827" y="762" type="line"/>
      <point x="495" y="1148" type="line"/>
      <point x="1058" y="1148" type="line"/>
    </contour>
  </outline>
</glyph>
<glyph name="deleteLeftKey" format="2">
  <advance width="1200"/>
  <unicode hex="232B"/>
  <outline>
    <contour>
      <point x="1260" y="1346" type="curve" smooth="yes"/>
      <point x="400" y="1346" type="line"/>
      <point x="-280" y="704" type="line"/>
      <point x="400" y="56" type="line"/>
      <point x="1260" y="56" type="line"/>
      <point x="1320" y="56"/>
      <point x="1360" y="96"/>
      <point x="1360" y="156" type="curve" smooth="yes"/>
      <point x="1360" y="1246" type="line" smooth="yes"/>
      <point x="1360" y="1306"/>
      <point x="1320" y="1346"/>
    </contour>
    <contour>
      <point x="1028" y="1114" type="line"/>
      <point x="1162" y="976" type="line"/>
      <point x="894" y="710" type="line"/>
      <point x="1162" y="442" type="line"/>
      <point x="1028" y="308" type="line"/>
      <point x="760" y="576" type="line"/>
      <point x="492" y="308" type="line"/>
      <point x="358" y="442" type="line"/>
      <point x="626" y="710" type="line"/>
      <point x="358" y="976" type="line"/>
      <point x="492" y="1114" type="line"/>
      <point x="760" y="844" type="line"/>
    </contour>
  </outline>
</glyph>
<glyph name="boxLightTripleDashHorizontal" format="2">
  <advance width="1200"/>
  <unicode hex="2504"/>
  <outline>
    <contour>
      <point x="320" y="780" type="line"/>
      <point x="80" y="780" type="line"/>
      <point x="80" y="620" type="line"/>
      <point x="320" y="620" type="line"/>
    </contour>
    <contour>
      <point x="720" y="780" type="line"/>
      <point x="480" y="780" type="line"/>
      <point x="480" y="620" type="line"/>
      <point x="720" y="620" type="line"/>
    </contour>
    <contour>
      <point x="1120" y="780" type="line"/>
      <point x="880" y="780" type="line"/>
      <point x="880" y="620" type="line"/>
      <point x="1120" y="620" type="line"/>
    </contour>
  </outline>
</glyph>
<glyph name="boxHeavyQuadrupleDashHorizontal" format="2">
  <advance width="1200"/>
  <unicode hex="2509"/>
  <outline>
    <contour>
      <point x="375" y="940" type="line"/>
      <point x="375" y="460" type="line"/>
      <point x="525" y="460" type="line"/>
      <point x="525" y="940" type="line"/>
    </contour>
    <contour>
      <point x="675" y="940" type="line"/>
      <point x="675" y="460" type="line"/>
      <point x="825" y="460" type="line"/>
      <point x="825" y="940" type="line"/>
    </contour>
    <contour>
      <point x="75" y="940" type="line"/>
      <point x="75" y="460" type="line"/>
      <point x="225" y="460" type="line"/>
      <point x="225" y="940" type="line"/>
    </contour>
    <contour>
      <point x="975" y="940" type="line"/>
      <point x="975" y="460" type="line"/>
      <point x="1125" y="460" type="line"/>
      <point x="1125" y="940" type="line"/>
    </contour>
  </outline>
</glyph>
<glyph name="uni256D" format="2">
  <advance width="1200"/>
  <unicode hex="256D"/>
  <note>
uni256D
</note>
  <outline>
    <contour>
      <point x="1210" y="780" type="line"/>
      <point x="1060" y="780" type="line" smooth="yes"/>
      <point x="762" y="780"/>
      <point x="520" y="538"/>
      <point x="520" y="240" type="curve" smooth="yes"/>
      <point x="520" y="-1000" type="line"/>
      <point x="680" y="-1000" type="line"/>
      <point x="680" y="240" type="line" smooth="yes"/>
      <point x="680" y="448"/>
      <point x="852" y="620"/>
      <point x="1060" y="620" type="curve" smooth="yes"/>
      <point x="1210" y="620" type="line"/>
    </contour>
  </outline>
</glyph>
<glyph name="boxHeavyRight" format="2">
  <advance width="1200"/>
  <unicode hex="257A"/>
  <outline>
    <contour>
      <point x="1210" y="940" type="line"/>
      <point x="520" y="940" type="line"/>
      <point x="520" y="460" type="line"/>
      <point x="1210" y="460" type="line"/>
    </contour>
  </outline>
</glyph>
<glyph name="whiteCircle" format="2">
  <advance width="1200"/>
  <unicode hex="25CB"/>
  <outline>
    <contour>
      <point x="600" y="1080" type="curve" smooth="yes"/>
      <point x="300" y="1080"/>
      <point x="60" y="838"/>
      <point x="60" y="540" type="curve" smooth="yes"/>
      <point x="60" y="240"/>
      <point x="300" y="0"/>
      <point x="600" y="0" type="curve" smooth="yes"/>
      <point x="898" y="0"/>
      <point x="1140" y="240"/>
      <point x="1140" y="540" type="curve" smooth="yes"/>
      <point x="1140" y="838"/>
      <point x="898" y="1080"/>
    </contour>
    <contour>
      <point x="600" y="920" type="curve" smooth="yes"/>
      <point x="808" y="920"/>
      <point x="980" y="748"/>
      <point x="980" y="540" type="curve" smooth="yes"/>
      <point x="980" y="330"/>
      <point x="808" y="160"/>
      <point x="600" y="160" type="curve" smooth="yes"/>
      <point x="390" y="160"/>
      <point x="220" y="330"/>
      <point x="220" y="540" type="curve" smooth="yes"/>
      <point x="220" y="748"/>
      <point x="390" y="920"/>
    </contour>
  </outline>
</glyph>
<glyph name="upperLeftArc" format="2">
  <advance width="1200"/>
  <unicode hex="25DC"/>
  <outline>
    <contour>
      <point x="600" y="1080" type="line"/>
      <point x="300" y="1080"/>
      <point x="60" y="838"/>
      <point x="60" y="540" type="curve"/>
      <point x="220" y="540" type="line"/>
      <point x="220" y="748"/>
      <point x="390" y="920"/>
      <point x="600" y="920" type="curve"/>
    </contour>
  </outline>
</glyph>
<glyph name="upperRightQuadrantWhiteCircle" format="2">
  <advance width="1200"/>
  <unicode hex="25F7"/>
  <outline>
    <contour>
      <point x="600" y="1080" type="curve" smooth="yes"/>
      <point x="300" y="1080"/>
      <point x="60" y="838"/>
      <point x="60" y="540" type="curve" smooth="yes"/>
      <point x="60" y="240"/>
      <point x="300" y="0"/>
      <point x="600" y="0" type="curve" smooth="yes"/>
      <point x="898" y="0"/>
      <point x="1140" y="240"/>
      <point x="1140" y="540" type="curve" smooth="yes"/>
      <point x="1140" y="838"/>
      <point x="898" y="1080"/>
    </contour>
    <contour>
      <point x="520" y="910" type="curve"/>
      <point x="520" y="460" type="line"/>
      <point x="970" y="460" type="line"/>
      <point x="934" y="288"/>
      <point x="780" y="160"/>
      <point x="600" y="160" type="curve" smooth="yes"/>
      <point x="390" y="160"/>
      <point x="220" y="330"/>
      <point x="220" y="540" type="curve" smooth="yes"/>
      <point x="220" y="720"/>
      <point x="348" y="874"/>
    </contour>
    <contour>
      <point x="680" y="910" type="line"/>
      <point x="824" y="878"/>
      <point x="940" y="764"/>
      <point x="972" y="620" type="curve"/>
      <point x="680" y="620" type="line"/>
    </contour>
  </outline>
</glyph>
<glyph name="ballotBoxWithCheck" format="2">
  <advance width="1200"/>
  <unicode hex="2611"/>
  <anchor x="624" y="230" name="bottom"/>
  <anchor x="624" y="1616" name="top"/>
  <outline>
    <contour>
      <point x="590" y="546" type="line"/>
      <point x="529" y="737" type="line"/>
      <point x="217" y="737" type="line"/>
      <point x="401" y="230" type="line"/>
      <point x="787" y="230" type="line"/>
      <point x="1100" y="1383" type="line"/>
      <point x="807" y="1383" type="line"/>
    </contour>
    <component base="ballotBox"/>
  </outline>
</glyph>
<glyph name="smileface" format="2">
  <advance width="1200"/>
  <unicode hex="263A"/>
  <outline>
    <contour>
      <point x="600" y="1078" type="curve" smooth="yes"/>
      <point x="300" y="1078"/>
      <point x="60" y="838"/>
      <point x="60" y="540" type="curve" smooth="yes"/>
      <point x="60" y="240"/>
      <point x="300" y="0"/>
      <point x="600" y="0" type="curve" smooth="yes"/>
      <point x="898" y="0"/>
      <point x="1140" y="240"/>
      <point x="1140" y="540" type="curve" smooth="yes"/>
      <point x="1140" y="838"/>
      <point x="898" y="1078"/>
    </contour>
    <contour>
      <point x="886" y="480" type="curve"/>
      <point x="798" y="480" type="line"/>
      <point x="772" y="376"/>
      <point x="714" y="302"/>
      <point x="600" y="302" type="curve" smooth="yes"/>
      <point x="486" y="302"/>
      <point x="428" y="376"/>
      <point x="402" y="480" type="curve"/>
      <point x="314" y="480" type="line"/>
      <point x="332" y="334"/>
      <point x="442" y="212"/>
      <point x="600" y="212" type="curve" smooth="yes"/>
      <point x="758" y="212"/>
      <point x="868" y="334"/>
    </contour>
    <contour>
      <point x="436" y="782" type="curve" smooth="yes"/>
      <point x="380" y="782"/>
      <point x="340" y="742"/>
      <point x="340" y="692" type="curve" smooth="yes"/>
      <point x="340" y="638"/>
      <point x="380" y="598"/>
      <point x="436" y="598" type="curve" smooth="yes"/>
      <point x="492" y="598"/>
      <point x="532" y="638"/>
      <point x="532" y="692" type="curve" smooth="yes"/>
      <point x="532" y="742"/>
      <point x="492" y="782"/>
    </contour>
    <contour>
      <point x="600" y="974" type="curve" smooth="yes"/>
      <point x="836" y="974"/>
      <point x="1022" y="776"/>
      <point x="1022" y="540" type="curve" smooth="yes"/>
      <point x="1022" y="300"/>
      <point x="836" y="104"/>
      <point x="600" y="104" type="curve" smooth="yes"/>
      <point x="360" y="104"/>
      <point x="178" y="300"/>
      <point x="178" y="540" type="curve" smooth="yes"/>
      <point x="178" y="776"/>
      <point x="360" y="974"/>
    </contour>
    <contour>
      <point x="756" y="782" type="curve" smooth="yes"/>
      <point x="700" y="782"/>
      <point x="660" y="742"/>
      <point x="660" y="692" type="curve" smooth="yes"/>
      <point x="660" y="638"/>
      <point x="700" y="598"/>
      <point x="756" y="598" type="curve" smooth="yes"/>
      <point x="812" y="598"/>
      <point x="852" y="638"/>
      <point x="852" y="692" type="curve" smooth="yes"/>
      <point x="852" y="742"/>
      <point x="812" y="782"/>
    </contour>
  </outline>
</glyph>
<glyph name="female" format="2">
  <advance width="1200"/>
  <unicode hex="2640"/>
  <outline>
    <contour>
      <point x="598" y="1078" type="curve" smooth="yes"/>
      <point x="420" y="1078"/>
      <point x="278" y="940"/>
      <point x="278" y="762" type="curve" smooth="yes"/>
      <point x="278" y="600"/>
      <point x="396" y="476"/>
      <point x="552" y="454" type="curve"/>
      <point x="552" y="290" type="line"/>
      <point x="360" y="290" type="line"/>
      <point x="360" y="210" type="line"/>
      <point x="552" y="210" type="line"/>
      <point x="552" y="0" type="line"/>
      <point x="648" y="0" type="line"/>
      <point x="648" y="210" type="line"/>
      <point x="840" y="210" type="line"/>
      <point x="840" y="290" type="line"/>
      <point x="648" y="290" type="line"/>
      <point x="648" y="456" type="line"/>
      <point x="802" y="478"/>
      <point x="920" y="600"/>
      <point x="920" y="762" type="curve" smooth="yes"/>
      <point x="920" y="940"/>
      <point x="776" y="1078"/>
    </contour>
    <contour>
      <point x="598" y="986" type="curve" smooth="yes"/>
      <point x="726" y="986"/>
      <point x="818" y="890"/>
      <point x="818" y="762" type="curve" smooth="yes"/>
      <point x="818" y="634"/>
      <point x="726" y="540"/>
      <point x="598" y="540" type="curve" smooth="yes"/>
      <point x="470" y="540"/>
      <point x="380" y="634"/>
      <point x="380" y="762" type="curve" smooth="yes"/>
      <point x="380" y="890"/>
      <point x="470" y="986"/>
    </contour>
  </outline>
</glyph>
<glyph name="musicalnotedbl" format="2">
  <advance width="1200"/>
  <unicode hex="266B"/>
  <outline>
    <contour>
      <point x="1072" y="1154" type="line"/>
      <point x="410" y="982" type="line"/>
      <point x="410" y="270" type="line"/>
      <point x="380" y="286"/>
      <point x="344" y="296"/>
      <point x="298" y="296" type="curve" smooth="yes"/>
      <point x="158" y="296"/>
      <point x="48" y="216"/>
      <point x="48" y="116" type="curve" smooth="yes"/>
      <point x="48" y="24"/>
      <point x="128" y="-24"/>
      <point x="258" y="-24" type="curve" smooth="yes"/>
      <point x="404" y="-24"/>
      <point x="506" y="76"/>
      <point x="506" y="156" type="curve" smooth="yes"/>
      <point x="506" y="874" type="line"/>
      <point x="976" y="992" type="line"/>
      <point x="976" y="370" type="line"/>
      <point x="946" y="386"/>
      <point x="910" y="396"/>
      <point x="864" y="396" type="curve" smooth="yes"/>
      <point x="724" y="396"/>
      <point x="614" y="316"/>
      <point x="614" y="216" type="curve" smooth="yes"/>
      <point x="614" y="124"/>
      <point x="694" y="76"/>
      <point x="824" y="76" type="curve" smooth="yes"/>
      <point x="970" y="76"/>
      <point x="1072" y="176"/>
      <point x="1072" y="256" type="curve" smooth="yes"/>
    </contour>
  </outline>
</glyph>
<glyph name="uniE001" format="2">
  <unicode hex="E001"/>
  <outline>
    <contour>
      <point x="616" y="1140" type="curve"/>
      <point x="620" y="1134" type="line"/>
      <point x="660" y="1146"/>
      <point x="694" y="1154"/>
      <point x="734" y="1158" type="curve"/>
      <point x="736" y="1148" type="line"/>
      <point x="658" y="1092"/>
      <point x="612" y="994"/>
      <point x="612" y="888" type="curve" smooth="yes"/>
      <point x="612" y="854"/>
      <point x="616" y="820"/>
      <point x="626" y="788" type="curve"/>
      <point x="618" y="780" type="line"/>
      <point x="582" y="806"/>
      <point x="568" y="858"/>
      <point x="558" y="886" type="curve"/>
      <point x="554" y="886" type="line"/>
      <point x="548" y="866"/>
      <point x="542" y="826"/>
      <point x="540" y="808" type="curve"/>
      <point x="530" y="806" type="line"/>
      <point x="510" y="838" type="line"/>
      <point x="506" y="836" type="line"/>
      <point x="504" y="822"/>
      <point x="502" y="808"/>
      <point x="502" y="796" type="curve" smooth="yes"/>
      <point x="502" y="720"/>
      <point x="534" y="646"/>
      <point x="558" y="606" type="curve" smooth="yes"/>
      <point x="588" y="556"/>
      <point x="670" y="470"/>
      <point x="670" y="420" type="curve" smooth="yes"/>
      <point x="670" y="364"/>
      <point x="616" y="328"/>
      <point x="616" y="272" type="curve" smooth="yes"/>
      <point x="616" y="246"/>
      <point x="622" y="242"/>
      <point x="622" y="242" type="curve"/>
      <point x="622" y="242"/>
      <point x="720" y="244"/>
      <point x="760" y="250" type="curve"/>
      <point x="768" y="242" type="line"/>
      <point x="740" y="200"/>
      <point x="598" y="138"/>
      <point x="534" y="108" type="curve"/>
      <point x="546" y="98" type="line"/>
      <point x="718" y="136" type="line"/>
      <point x="724" y="126" type="line"/>
      <point x="596" y="50" type="line"/>
      <point x="760" y="-86"/>
      <point x="1002" y="-148"/>
      <point x="1124" y="-148" type="curve"/>
      <point x="1124" y="-144" type="line"/>
      <point x="1100" y="-118"/>
      <point x="1060" y="-54"/>
      <point x="1040" y="-12" type="curve"/>
      <point x="1048" y="-4" type="line"/>
      <point x="1086" y="-32"/>
      <point x="1170" y="-84"/>
      <point x="1170" y="-84" type="curve"/>
      <point x="1170" y="-84"/>
      <point x="1188" y="-54"/>
      <point x="1200" y="-28" type="curve"/>
      <point x="1146" y="12"/>
      <point x="1076" y="100"/>
      <point x="1062" y="144" type="curve"/>
      <point x="1070" y="150" type="line"/>
      <point x="1106" y="122"/>
      <point x="1204" y="68"/>
      <point x="1240" y="68" type="curve"/>
      <point x="1250" y="96"/>
      <point x="1254" y="130"/>
      <point x="1254" y="154" type="curve"/>
      <point x="1288" y="206" type="line"/>
      <point x="1288" y="208"/>
      <point x="1286" y="208"/>
      <point x="1286" y="210" type="curve"/>
      <point x="1260" y="208"/>
      <point x="1192" y="178"/>
      <point x="1160" y="150" type="curve"/>
      <point x="1148" y="152" type="line"/>
      <point x="1148" y="230"/>
      <point x="1234" y="280"/>
      <point x="1278" y="306" type="curve"/>
      <point x="1278" y="316" type="line"/>
      <point x="1200" y="348" type="line"/>
      <point x="1186" y="356"/>
      <point x="1074" y="478"/>
      <point x="1074" y="568" type="curve"/>
      <point x="1094" y="562" type="line"/>
      <point x="1144" y="504"/>
      <point x="1248" y="414"/>
      <point x="1386" y="396" type="curve"/>
      <point x="1438" y="398"/>
      <point x="1664" y="456"/>
      <point x="1682" y="464" type="curve"/>
      <point x="1752" y="426"/>
      <point x="1920" y="368"/>
      <point x="1960" y="360" type="curve"/>
      <point x="1998" y="364"/>
      <point x="2054" y="400"/>
      <point x="2054" y="400" type="curve"/>
      <point x="1986" y="456"/>
      <point x="1978" y="424"/>
      <point x="1740" y="510" type="curve" smooth="yes"/>
      <point x="1622" y="552"/>
      <point x="1560" y="596"/>
      <point x="1530" y="646" type="curve"/>
      <point x="1524" y="646" type="line"/>
      <point x="1522" y="640"/>
      <point x="1522" y="636"/>
      <point x="1522" y="632" type="curve" smooth="yes"/>
      <point x="1522" y="584"/>
      <point x="1568" y="550"/>
      <point x="1602" y="520" type="curve"/>
      <point x="1600" y="512" type="line"/>
      <point x="1574" y="514"/>
      <point x="1520" y="524"/>
      <point x="1496" y="530" type="curve"/>
      <point x="1476" y="540"/>
      <point x="1336" y="594"/>
      <point x="1336" y="750" type="curve" smooth="yes"/>
      <point x="1336" y="816"/>
      <point x="1356" y="884"/>
      <point x="1364" y="910" type="curve"/>
      <point x="1374" y="910" type="line"/>
      <point x="1384" y="800" type="line"/>
      <point x="1422" y="736" type="line"/>
      <point x="1428" y="744"/>
      <point x="1458" y="796"/>
      <point x="1458" y="832" type="curve" smooth="yes"/>
      <point x="1458" y="854"/>
      <point x="1434" y="888"/>
      <point x="1422" y="900" type="curve" smooth="yes"/>
      <point x="1316" y="1020" type="line"/>
      <point x="1322" y="1026" type="line"/>
      <point x="1422" y="984" type="line"/>
      <point x="1596" y="840"/>
      <point x="1868" y="650"/>
      <point x="2022" y="612" type="curve" smooth="yes"/>
      <point x="2136" y="582"/>
      <point x="2276" y="568"/>
      <point x="2276" y="568" type="curve"/>
      <point x="2276" y="568"/>
      <point x="2294" y="608"/>
      <point x="2294" y="656" type="curve" smooth="yes"/>
      <point x="2294" y="692"/>
      <point x="2284" y="746"/>
      <point x="2266" y="746" type="curve" smooth="yes"/>
      <point x="2258" y="746"/>
      <point x="2250" y="738"/>
      <point x="2250" y="708" type="curve" smooth="yes"/>
      <point x="2250" y="696"/>
      <point x="2252" y="682"/>
      <point x="2254" y="662" type="curve"/>
      <point x="2242" y="662" type="line"/>
      <point x="2218" y="690"/>
      <point x="2180" y="738"/>
      <point x="2180" y="768" type="curve" smooth="yes"/>
      <point x="2180" y="806"/>
      <point x="2238" y="830"/>
      <point x="2238" y="866" type="curve"/>
      <point x="2212" y="900"/>
      <point x="2106" y="934"/>
      <point x="1972" y="982" type="curve" smooth="yes"/>
      <point x="1844" y="1026"/>
      <point x="1754" y="1082"/>
      <point x="1676" y="1148" type="curve"/>
      <point x="1668" y="1146" type="line"/>
      <point x="1756" y="1040" type="line"/>
      <point x="1752" y="1030" type="line"/>
      <point x="1566" y="1030"/>
      <point x="1466" y="1088"/>
      <point x="1466" y="1154" type="curve" smooth="yes"/>
      <point x="1466" y="1206"/>
      <point x="1530" y="1224"/>
      <point x="1554" y="1230" type="curve"/>
      <point x="1558" y="1238" type="line"/>
      <point x="1556" y="1240"/>
      <point x="1544" y="1242"/>
      <point x="1526" y="1242" type="curve" smooth="yes"/>
      <point x="1486" y="1242"/>
      <point x="1408" y="1226"/>
      <point x="1408" y="1148" type="curve" smooth="yes"/>
      <point x="1408" y="1124"/>
      <point x="1418" y="1092"/>
      <point x="1448" y="1058" type="curve"/>
      <point x="1424" y="1058" type="line"/>
      <point x="1360" y="1096"/>
      <point x="1338" y="1178"/>
      <point x="1338" y="1178" type="curve"/>
      <point x="1184" y="1204" type="line"/>
      <point x="1188" y="1214" type="line"/>
      <point x="1244" y="1236"/>
      <point x="1468" y="1328"/>
      <point x="1570" y="1328" type="curve" smooth="yes"/>
      <point x="1604" y="1328"/>
      <point x="1630" y="1322"/>
      <point x="1646" y="1312" type="curve"/>
      <point x="1656" y="1312" type="line"/>
      <point x="1644" y="1332"/>
      <point x="1620" y="1370"/>
      <point x="1566" y="1370" type="curve" smooth="yes"/>
      <point x="1464" y="1370"/>
      <point x="1330" y="1318"/>
      <point x="1234" y="1284" type="curve"/>
      <point x="1222" y="1286" type="line"/>
      <point x="1226" y="1316"/>
      <point x="1250" y="1342"/>
      <point x="1268" y="1356" type="curve"/>
      <point x="1266" y="1364" type="line"/>
      <point x="1222" y="1380"/>
      <point x="1120" y="1410"/>
      <point x="1028" y="1410" type="curve" smooth="yes"/>
      <point x="796" y="1410"/>
      <point x="642" y="1190"/>
    </contour>
    <contour>
      <point x="970" y="946" type="curve"/>
      <point x="958" y="952" type="line"/>
      <point x="994" y="984"/>
      <point x="1064" y="1016"/>
      <point x="1130" y="1028" type="curve"/>
      <point x="1130" y="1034" type="line"/>
      <point x="1068" y="1068" type="line"/>
      <point x="1070" y="1076" type="line"/>
      <point x="1070" y="1076"/>
      <point x="1162" y="1094"/>
      <point x="1204" y="1094" type="curve"/>
      <point x="1204" y="1098" type="line"/>
      <point x="1150" y="1166" type="line"/>
      <point x="1152" y="1174" type="line"/>
      <point x="1152" y="1174"/>
      <point x="1244" y="1144"/>
      <point x="1310" y="1074" type="curve"/>
      <point x="1308" y="1066" type="line"/>
      <point x="1282" y="1060"/>
      <point x="1240" y="1054"/>
      <point x="1228" y="1052" type="curve"/>
      <point x="1228" y="1044" type="line"/>
      <point x="1282" y="946" type="line"/>
      <point x="1276" y="940" type="line"/>
      <point x="1276" y="940"/>
      <point x="1192" y="958"/>
      <point x="1128" y="958" type="curve" smooth="yes"/>
      <point x="1040" y="958"/>
      <point x="970" y="946"/>
    </contour>
    <contour>
      <point x="836" y="1126" type="curve"/>
      <point x="828" y="1134" type="line"/>
      <point x="842" y="1182"/>
      <point x="882" y="1308"/>
      <point x="1060" y="1308" type="curve" smooth="yes"/>
      <point x="1108" y="1308"/>
      <point x="1140" y="1298"/>
      <point x="1140" y="1298" type="curve"/>
      <point x="1130" y="1284" type="line"/>
      <point x="1028" y="1232" type="line"/>
      <point x="1026" y="1228"/>
      <point x="1002" y="1176"/>
      <point x="1002" y="1110" type="curve" smooth="yes"/>
      <point x="1002" y="1094"/>
      <point x="1004" y="1076"/>
      <point x="1008" y="1058" type="curve"/>
      <point x="996" y="1058" type="line"/>
      <point x="968" y="1078"/>
      <point x="920" y="1108"/>
      <point x="920" y="1184" type="curve"/>
      <point x="878" y="1170"/>
      <point x="836" y="1126"/>
    </contour>
    <contour>
      <point x="1602" y="1012" type="line"/>
      <point x="1682" y="1006" type="line"/>
      <point x="1672" y="990" type="line"/>
      <point x="1652" y="982"/>
      <point x="1632" y="980"/>
      <point x="1614" y="980" type="curve" smooth="yes"/>
      <point x="1560" y="980"/>
      <point x="1514" y="1006"/>
      <point x="1460" y="1050" type="curve"/>
      <point x="1496" y="1052" type="line"/>
    </contour>
  </outline>
</glyph>
<glyph name=".notdef" format="2">
  <advance width="1200"/>
  <outline>
    <contour>
      <point x="180" y="2100" type="line"/>
      <point x="180" y="-700" type="line"/>
      <point x="1020" y="-700" type="line"/>
      <point x="1020" y="2100" type="line"/>
    </contour>
    <contour>
      <point x="912" y="-596" type="line"/>
      <point x="290" y="-596" type="line"/>
      <point x="290" y="1996" type="line"/>
      <point x="912" y="1996" type="line"/>
    </contour>
    <contour>
      <point x="614" y="346" type="curve" smooth="yes"/>
      <point x="614" y="436" type="line"/>
      <point x="748" y="456"/>
      <point x="804" y="532"/>
      <point x="804" y="672" type="curve" smooth="yes"/>
      <point x="804" y="792"/>
      <point x="754" y="902"/>
      <point x="582" y="902" type="curve" smooth="yes"/>
      <point x="504" y="902"/>
      <point x="396" y="878"/>
      <point x="396" y="824" type="curve" smooth="yes"/>
      <point x="396" y="798"/>
      <point x="414" y="778"/>
      <point x="444" y="778" type="curve" smooth="yes"/>
      <point x="452" y="778"/>
      <point x="460" y="780"/>
      <point x="470" y="784" type="curve" smooth="yes"/>
      <point x="504" y="800"/>
      <point x="532" y="806"/>
      <point x="574" y="806" type="curve" smooth="yes"/>
      <point x="674" y="806"/>
      <point x="696" y="746"/>
      <point x="696" y="668" type="curve" smooth="yes"/>
      <point x="696" y="562"/>
      <point x="658" y="522"/>
      <point x="514" y="514" type="curve"/>
      <point x="514" y="346" type="line" smooth="yes"/>
      <point x="514" y="316"/>
      <point x="538" y="298"/>
      <point x="564" y="298" type="curve" smooth="yes"/>
      <point x="588" y="298"/>
      <point x="614" y="316"/>
    </contour>
    <contour>
      <point x="494" y="170" type="curve" smooth="yes"/>
      <point x="494" y="128"/>
      <point x="524" y="96"/>
      <point x="564" y="96" type="curve" smooth="yes"/>
      <point x="604" y="96"/>
      <point x="634" y="128"/>
      <point x="634" y="170" type="curve" smooth="yes"/>
      <point x="634" y="210"/>
      <point x="604" y="240"/>
      <point x="564" y="240" type="curve" smooth="yes"/>
      <point x="524" y="240"/>
      <point x="494" y="210"/>
    </contour>
  </outline>
</glyph>
<glyph name="_part.arrowhead" format="2">
  <advance width="1200"/>
  <outline>
    <contour>
      <point x="398" y="1298" type="line"/>
      <point x="191" y="1120" type="line"/>
      <point x="645" y="626" type="line"/>
      <point x="191" y="132" type="line"/>
      <point x="398" y="-46" type="line"/>
      <point x="1003" y="626" type="line"/>
    </contour>
  </outline>
</glyph>
<glyph name="_part.numbersign" format="2">
  <advance width="2400"/>
  <outline>
    <contour>
      <point x="1102" y="893" type="line"/>
      <point x="1677" y="893" type="line"/>
      <point x="1677" y="1102" type="line"/>
      <point x="1130" y="1102" type="line"/>
      <point x="1168" y="1386" type="line"/>
      <point x="907" y="1386" type="line"/>
      <point x="869" y="1102" type="line"/>
      <point x="678" y="1102" type="line"/>
      <point x="717" y="1386" type="line"/>
      <point x="454" y="1386" type="line"/>
      <point x="418" y="1102" type="line"/>
      <point x="265" y="1102" type="line"/>
      <point x="265" y="893" type="line"/>
      <point x="390" y="893" type="line"/>
      <point x="338" y="497" type="line"/>
      <point x="191" y="497" type="line"/>
      <point x="191" y="289" type="line"/>
      <point x="310" y="289" type="line"/>
      <point x="274" y="0" type="line"/>
      <point x="535" y="0" type="line"/>
      <point x="573" y="289" type="line"/>
      <point x="763" y="289" type="line"/>
      <point x="725" y="0" type="line"/>
      <point x="986" y="0" type="line"/>
      <point x="1024" y="289" type="line"/>
      <point x="1677" y="289" type="line"/>
      <point x="1677" y="497" type="line"/>
      <point x="1052" y="497" type="line"/>
    </contour>
    <contour>
      <point x="599" y="497" type="line"/>
      <point x="651" y="893" type="line"/>
      <point x="841" y="893" type="line"/>
      <point x="789" y="497" type="line"/>
    </contour>
  </outline>
</glyph>
<glyph name="_part.plus" format="2">
  <advance width="1200"/>
  <outline>
    <contour>
      <point x="731" y="1258" type="line"/>
      <point x="467" y="1258" type="line"/>
      <point x="467" y="747" type="line"/>
      <point x="-34" y="747" type="line"/>
      <point x="-34" y="503" type="line"/>
      <point x="467" y="503" type="line"/>
      <point x="467" y="-8" type="line"/>
      <point x="731" y="-8" type="line"/>
      <point x="731" y="503" type="line"/>
      <point x="1234" y="503" type="line"/>
      <point x="1234" y="747" type="line"/>
      <point x="731" y="747" type="line"/>
    </contour>
  </outline>
</glyph>
<glyph name="_part.question" format="2">
  <advance width="1200"/>
  <outline>
    <contour>
      <point x="392" y="1421" type="curve" smooth="yes"/>
      <point x="183" y="1421"/>
      <point x="26" y="1340"/>
      <point x="-88" y="1206" type="curve"/>
      <point x="21" y="942" type="line"/>
      <point x="129" y="1127"/>
      <point x="273" y="1172"/>
      <point x="363" y="1172" type="curve" smooth="yes"/>
      <point x="456" y="1172"/>
      <point x="523" y="1132"/>
      <point x="523" y="1059" type="curve" smooth="yes"/>
      <point x="523" y="893"/>
      <point x="192" y="905"/>
      <point x="192" y="561" type="curve" smooth="yes"/>
      <point x="192" y="510" type="line"/>
      <point x="481" y="510" type="line"/>
      <point x="481" y="551" type="line" smooth="yes"/>
      <point x="481" y="785"/>
      <point x="852" y="762"/>
      <point x="852" y="1086" type="curve" smooth="yes"/>
      <point x="852" y="1264"/>
      <point x="697" y="1421"/>
    </contour>
    <contour>
      <point x="340" y="328" type="curve" smooth="yes"/>
      <point x="239" y="328"/>
      <point x="160" y="246"/>
      <point x="160" y="147" type="curve" smooth="yes"/>
      <point x="160" y="48"/>
      <point x="239" y="-34"/>
      <point x="340" y="-34" type="curve" smooth="yes"/>
      <point x="440" y="-34"/>
      <point x="521" y="48"/>
      <point x="521" y="147" type="curve" smooth="yes"/>
      <point x="521" y="246"/>
      <point x="440" y="328"/>
    </contour>
  </outline>
</glyph>
<glyph name="asciitilde_asciitilde.liga" format="2">
  <advance width="1200"/>
  <outline>
    <contour>
      <point x="762" y="817" type="line"/>
      <point x="708" y="715"/>
      <point x="660" y="660"/>
      <point x="584" y="660" type="curve" smooth="yes"/>
      <point x="464" y="660"/>
      <point x="384" y="860"/>
      <point x="188" y="860" type="curve" smooth="yes"/>
      <point x="-8" y="860"/>
      <point x="-60" y="660"/>
      <point x="-180" y="660" type="curve" smooth="yes"/>
      <point x="-300" y="660"/>
      <point x="-380" y="860"/>
      <point x="-576" y="860" type="curve" smooth="yes"/>
      <point x="-756" y="860"/>
      <point x="-857" y="711"/>
      <point x="-939" y="544" type="curve"/>
      <point x="-762" y="465" type="line"/>
      <point x="-710" y="561"/>
      <point x="-662" y="621"/>
      <point x="-584" y="621" type="curve" smooth="yes"/>
      <point x="-464" y="621"/>
      <point x="-380" y="421"/>
      <point x="-188" y="421" type="curve" smooth="yes"/>
      <point x="4" y="421"/>
      <point x="60" y="621"/>
      <point x="180" y="621" type="curve" smooth="yes"/>
      <point x="300" y="621"/>
      <point x="384" y="421"/>
      <point x="576" y="421" type="curve" smooth="yes"/>
      <point x="754" y="421"/>
      <point x="854" y="551"/>
      <point x="939" y="737" type="curve"/>
    </contour>
  </outline>
</glyph>
<glyph name="asciitilde_greater.liga" format="2">
  <advance width="1200"/>
  <outline>
    <contour>
      <point x="-673" y="799" type="curve"/>
      <point x="-901" y="694" type="line"/>
      <point x="-841" y="518"/>
      <point x="-658" y="399"/>
      <point x="-514" y="399" type="curve" smooth="yes"/>
      <point x="-239" y="399"/>
      <point x="-227" y="599"/>
      <point x="-114" y="599" type="curve" smooth="yes"/>
      <point x="-3" y="599"/>
      <point x="13" y="387"/>
      <point x="286" y="387" type="curve" smooth="yes"/>
      <point x="584" y="387"/>
      <point x="549" y="563"/>
      <point x="725" y="547" type="curve"/>
      <point x="725" y="811" type="line"/>
      <point x="389" y="840"/>
      <point x="406" y="645"/>
      <point x="286" y="645" type="curve" smooth="yes"/>
      <point x="173" y="645"/>
      <point x="161" y="845"/>
      <point x="-114" y="845" type="curve" smooth="yes"/>
      <point x="-389" y="845"/>
      <point x="-401" y="645"/>
      <point x="-514" y="645" type="curve" smooth="yes"/>
      <point x="-576" y="645"/>
      <point x="-641" y="719"/>
    </contour>
    <component base="_part.arrowhead1" xOffset="-47"/>
  </outline>
</glyph>
<glyph name="bar_bar_bar_greater.liga" format="2">
  <advance width="1200"/>
  <outline>
    <contour>
      <point x="-2419" y="1422" type="line"/>
      <point x="-2665" y="1422" type="line"/>
      <point x="-2665" y="-172" type="line"/>
      <point x="-2419" y="-172" type="line"/>
    </contour>
    <contour>
      <point x="-1499" y="1422" type="line"/>
      <point x="-1745" y="1422" type="line"/>
      <point x="-1745" y="-172" type="line"/>
      <point x="-1499" y="-172" type="line"/>
    </contour>
    <component base="bar_greater.liga" xOffset="-200"/>
  </outline>
</glyph>
<glyph name="braceleft_hyphen.rem" format="2">
  <advance width="1200"/>
  <outline>
    <contour>
      <point x="-567" y="577" type="line"/>
      <point x="783" y="577" type="line"/>
      <point x="783" y="823" type="line"/>
      <point x="-567" y="823" type="line"/>
    </contour>
    <contour>
      <point x="-267" y="1680" type="line"/>
      <point x="-635" y="1680"/>
      <point x="-775" y="1583"/>
      <point x="-745" y="1309" type="curve" smooth="yes"/>
      <point x="-715" y="1025" type="line" smooth="yes"/>
      <point x="-699" y="873"/>
      <point x="-821" y="828"/>
      <point x="-989" y="828" type="curve"/>
      <point x="-989" y="572" type="line"/>
      <point x="-819" y="572"/>
      <point x="-699" y="527"/>
      <point x="-715" y="375" type="curve" smooth="yes"/>
      <point x="-745" y="89" type="line" smooth="yes"/>
      <point x="-773" y="-181"/>
      <point x="-635" y="-280"/>
      <point x="-267" y="-280" type="curve"/>
      <point x="-267" y="-60" type="line"/>
      <point x="-388" y="-60"/>
      <point x="-463" y="-34"/>
      <point x="-453" y="67" type="curve" smooth="yes"/>
      <point x="-422" y="362" type="line" smooth="yes"/>
      <point x="-398" y="589"/>
      <point x="-492" y="650"/>
      <point x="-493" y="700" type="curve"/>
      <point x="-494" y="752"/>
      <point x="-398" y="814"/>
      <point x="-422" y="1038" type="curve" smooth="yes"/>
      <point x="-453" y="1333" type="line" smooth="yes"/>
      <point x="-463" y="1434"/>
      <point x="-389" y="1460"/>
      <point x="-267" y="1460" type="curve"/>
    </contour>
  </outline>
</glyph>
<glyph name="bracketleft_bar.liga" format="2">
  <advance width="1200"/>
  <outline>
    <contour>
      <point x="-688" y="-246" type="line"/>
      <point x="142" y="-246" type="line"/>
      <point x="142" y="-12" type="line"/>
      <point x="-390" y="-12" type="line"/>
      <point x="-390" y="1410" type="line"/>
      <point x="142" y="1410" type="line"/>
      <point x="142" y="1646" type="line"/>
      <point x="-688" y="1646" type="line"/>
    </contour>
    <contour>
      <point x="730" y="1646" type="line"/>
      <point x="436" y="1646" type="line"/>
      <point x="436" y="-246" type="line"/>
      <point x="730" y="-246" type="line"/>
    </contour>
  </outline>
</glyph>
<glyph name="colon.uc" format="2">
  <advance width="1200"/>
  <outline>
    <contour>
      <point x="389" y="337" type="curve" smooth="yes"/>
      <point x="389" y="222"/>
      <point x="483" y="126"/>
      <point x="600" y="126" type="curve" smooth="yes"/>
      <point x="717" y="126"/>
      <point x="809" y="222"/>
      <point x="809" y="337" type="curve" smooth="yes"/>
      <point x="809" y="450"/>
      <point x="717" y="544"/>
      <point x="600" y="544" type="curve" smooth="yes"/>
      <point x="483" y="544"/>
      <point x="389" y="450"/>
    </contour>
    <contour>
      <point x="389" y="1028" type="curve" smooth="yes"/>
      <point x="389" y="914"/>
      <point x="483" y="819"/>
      <point x="600" y="819" type="curve" smooth="yes"/>
      <point x="717" y="819"/>
      <point x="809" y="914"/>
      <point x="809" y="1028" type="curve" smooth="yes"/>
      <point x="809" y="1141"/>
      <point x="717" y="1238"/>
      <point x="600" y="1238" type="curve" smooth="yes"/>
      <point x="483" y="1238"/>
      <point x="389" y="1141"/>
    </contour>
  </outline>
</glyph>
<glyph name="colon_equal.liga" format="2">
  <advance width="1200"/>
  <outline>
    <contour>
      <point x="1054" y="956" type="line"/>
      <point x="-118" y="956" type="line"/>
      <point x="-118" y="709" type="line"/>
      <point x="1054" y="709" type="line"/>
    </contour>
    <contour>
      <point x="1054" y="535" type="line"/>
      <point x="-118" y="535" type="line"/>
      <point x="-118" y="290" type="line"/>
      <point x="1054" y="290" type="line"/>
    </contour>
    <contour>
      <point x="-768" y="376" type="curve" smooth="yes"/>
      <point x="-768" y="261"/>
      <point x="-675" y="165"/>
      <point x="-557" y="165" type="curve" smooth="yes"/>
      <point x="-440" y="165"/>
      <point x="-349" y="261"/>
      <point x="-349" y="376" type="curve" smooth="yes"/>
      <point x="-349" y="489"/>
      <point x="-440" y="583"/>
      <point x="-557" y="583" type="curve" smooth="yes"/>
      <point x="-675" y="583"/>
      <point x="-768" y="489"/>
    </contour>
    <contour>
      <point x="-768" y="868" type="curve" smooth="yes"/>
      <point x="-768" y="755"/>
      <point x="-675" y="659"/>
      <point x="-557" y="659" type="curve" smooth="yes"/>
      <point x="-440" y="659"/>
      <point x="-349" y="755"/>
      <point x="-349" y="868" type="curve" smooth="yes"/>
      <point x="-349" y="981"/>
      <point x="-440" y="1079"/>
      <point x="-557" y="1079" type="curve" smooth="yes"/>
      <point x="-675" y="1079"/>
      <point x="-768" y="981"/>
    </contour>
  </outline>
</glyph>
<glyph name="descStraight-cy" format="2">
  <advance width="1200"/>
  <anchor x="627" y="0" name="_bottom"/>
  <anchor x="276" y="0" name="_bottomleft"/>
  <anchor x="641" y="0" name="_bottomright"/>
  <outline>
    <contour>
      <point x="762" y="233" type="line"/>
      <point x="363" y="233" type="line"/>
      <point x="405" y="0" type="line"/>
      <point x="485" y="0" type="line"/>
      <point x="525" y="-349" type="line"/>
      <point x="762" y="-349" type="line"/>
    </contour>
  </outline>
</glyph>
<glyph name="equal_greater_greater.liga" format="2">
  <advance width="1200"/>
  <outline>
    <contour>
      <point x="-12" y="956" type="line"/>
      <point x="-2214" y="956" type="line"/>
      <point x="-2214" y="709" type="line"/>
      <point x="-12" y="709" type="line"/>
    </contour>
    <contour>
      <point x="-12" y="535" type="line"/>
      <point x="-2214" y="535" type="line"/>
      <point x="-2214" y="290" type="line"/>
      <point x="-12" y="290" type="line"/>
    </contour>
    <component base="_part.arrowhead" yOffset="-4"/>
    <component base="_part.arrowhead2" xOffset="-777"/>
  </outline>
</glyph>
<glyph name="exclam_equal.liga" format="2">
  <advance width="1200"/>
  <outline>
    <contour>
      <point x="-298" y="-122" type="line"/>
      <point x="530" y="1275" type="line"/>
      <point x="302" y="1388" type="line"/>
      <point x="-530" y="-5" type="line"/>
    </contour>
    <component base="equal_equal.liga"/>
  </outline>
</glyph>
<glyph name="exclam_equal_equal.liga" format="2">
  <advance width="1200"/>
  <outline>
    <contour>
      <point x="-984" y="-264" type="line"/>
      <point x="-4" y="1386" type="line"/>
      <point x="-231" y="1498" type="line"/>
      <point x="-1214" y="-149" type="line"/>
    </contour>
    <component base="equal_equal_equal.liga"/>
  </outline>
</glyph>
<glyph name="exclamdown.case" format="2">
  <advance width="1200"/>
  <outline>
    <contour>
      <point x="727" y="879" type="line"/>
      <point x="473" y="879" type="line"/>
      <point x="432" y="0" type="line"/>
      <point x="770" y="0" type="line"/>
    </contour>
    <contour>
      <point x="600" y="1421" type="curve" smooth="yes"/>
      <point x="501" y="1421"/>
      <point x="419" y="1338"/>
      <point x="419" y="1239" type="curve" smooth="yes"/>
      <point x="419" y="1141"/>
      <point x="501" y="1060"/>
      <point x="600" y="1060" type="curve" smooth="yes"/>
      <point x="701" y="1060"/>
      <point x="781" y="1141"/>
      <point x="781" y="1239" type="curve" smooth="yes"/>
      <point x="781" y="1338"/>
      <point x="701" y="1421"/>
    </contour>
  </outline>
</glyph>
<glyph name="five.dnom" format="2">
  <advance width="1200"/>
  <outline>
    <contour>
      <point x="915" y="214" type="curve" smooth="yes"/>
      <point x="915" y="354"/>
      <point x="813" y="426"/>
      <point x="683" y="426" type="curve" smooth="yes"/>
      <point x="631" y="426"/>
      <point x="601" y="416"/>
      <point x="563" y="402" type="curve"/>
      <point x="563" y="487" type="line"/>
      <point x="858" y="487" type="line"/>
      <point x="881" y="642" type="line"/>
      <point x="354" y="642" type="line"/>
      <point x="354" y="257" type="line"/>
      <point x="505" y="257" type="line"/>
      <point x="532" y="269"/>
      <point x="564" y="277"/>
      <point x="600" y="277" type="curve" smooth="yes"/>
      <point x="649" y="277"/>
      <point x="678" y="255"/>
      <point x="678" y="214" type="curve" smooth="yes"/>
      <point x="678" y="175"/>
      <point x="647" y="149"/>
      <point x="580" y="149" type="curve" smooth="yes"/>
      <point x="512" y="149"/>
      <point x="462" y="167"/>
      <point x="410" y="203" type="curve"/>
      <point x="285" y="94" type="line"/>
      <point x="361" y="24"/>
      <point x="465" y="-12"/>
      <point x="590" y="-12" type="curve" smooth="yes"/>
      <point x="793" y="-12"/>
      <point x="915" y="76"/>
    </contour>
  </outline>
</glyph>
<glyph name="five.tosf" format="2">
  <advance width="1200"/>
  <outline>
    <contour>
      <point x="1031" y="1145" type="line"/>
      <point x="186" y="1145" type="line"/>
      <point x="186" y="411" type="line"/>
      <point x="400" y="411" type="line"/>
      <point x="460" y="445"/>
      <point x="518" y="457"/>
      <point x="569" y="457" type="curve" smooth="yes"/>
      <point x="682" y="457"/>
      <point x="757" y="389"/>
      <point x="757" y="230" type="curve" smooth="yes"/>
      <point x="757" y="92"/>
      <point x="660" y="-6"/>
      <point x="514" y="-6" type="curve"/>
      <point x="417" y="-6"/>
      <point x="327" y="40"/>
      <point x="260" y="120" type="curve"/>
      <point x="78" y="-41" type="line"/>
      <point x="181" y="-166"/>
      <point x="338" y="-248"/>
      <point x="539" y="-248" type="curve"/>
      <point x="864" y="-248"/>
      <point x="1083" y="-40"/>
      <point x="1083" y="235" type="curve" smooth="yes"/>
      <point x="1083" y="503"/>
      <point x="907" y="675"/>
      <point x="693" y="675" type="curve" smooth="yes"/>
      <point x="632" y="675"/>
      <point x="556" y="663"/>
      <point x="488" y="631" type="curve"/>
      <point x="488" y="920" type="line"/>
      <point x="995" y="920" type="line"/>
    </contour>
  </outline>
</glyph>
<glyph name="four.tosf" format="2">
  <advance width="1200"/>
  <outline>
    <contour>
      <point x="479" y="1164" type="line"/>
      <point x="95" y="262" type="line"/>
      <point x="95" y="57" type="line"/>
      <point x="1121" y="57" type="line"/>
      <point x="1121" y="290" type="line"/>
      <point x="415" y="290" type="line"/>
      <point x="742" y="1059" type="line"/>
    </contour>
    <contour>
      <point x="978" y="615" type="line"/>
      <point x="709" y="615" type="line"/>
      <point x="668" y="258" type="line"/>
      <point x="672" y="-224" type="line"/>
      <point x="978" y="-224" type="line"/>
    </contour>
  </outline>
</glyph>
<glyph name="greater_colon.liga" format="2">
  <advance width="1200"/>
  <outline>
    <contour>
      <point x="-901" y="1264" type="line"/>
      <point x="-901" y="981" type="line"/>
      <point x="-207" y="628" type="line"/>
      <point x="-901" y="274" type="line"/>
      <point x="-901" y="-14" type="line"/>
      <point x="115" y="515" type="line"/>
      <point x="115" y="741" type="line"/>
    </contour>
    <component base="colon" yOffset="97"/>
  </outline>
</glyph>
<glyph name="greater_equal.ss01" format="2">
  <advance width="1200"/>
  <outline>
    <contour>
      <point x="-603" y="252" type="line"/>
      <point x="-502" y="23" type="line"/>
      <point x="605" y="515" type="line"/>
      <point x="502" y="738" type="line"/>
    </contour>
    <contour>
      <point x="-603" y="1004" type="line"/>
      <point x="502" y="518" type="line"/>
      <point x="605" y="515" type="line"/>
      <point x="605" y="741" type="line"/>
      <point x="-502" y="1233" type="line"/>
    </contour>
    <contour>
      <point x="605" y="-90" type="line"/>
      <point x="-585" y="-90" type="line"/>
      <point x="-585" y="-329" type="line"/>
      <point x="605" y="-329" type="line"/>
    </contour>
  </outline>
</glyph>
<glyph name="hookHELPER" format="2">
  <advance width="1200"/>
  <outline>
    <contour>
      <point x="389" y="-453" type="curve" smooth="yes"/>
      <point x="637" y="-453"/>
      <point x="778" y="-314"/>
      <point x="778" y="-52" type="curve" smooth="yes"/>
      <point x="778" y="2" type="line"/>
      <point x="462" y="2" type="line"/>
      <point x="462" y="-85" type="line" smooth="yes"/>
      <point x="462" y="-184"/>
      <point x="424" y="-220"/>
      <point x="358" y="-220" type="curve" smooth="yes"/>
      <point x="305" y="-220"/>
      <point x="275" y="-204"/>
      <point x="239" y="-185" type="curve"/>
      <point x="118" y="-364" type="line"/>
      <point x="188" y="-415"/>
      <point x="266" y="-453"/>
    </contour>
  </outline>
</glyph>
<glyph name="hyphen_greater_greater.liga" format="2">
  <advance width="1200"/>
  <outline>
    <contour>
      <point x="-385" y="1298" type="line"/>
      <point x="-593" y="1120" type="line"/>
      <point x="-453" y="968" type="line" smooth="yes"/>
      <point x="-369" y="879"/>
      <point x="-297" y="808"/>
      <point x="-212" y="755" type="curve"/>
      <point x="-2183" y="755" type="line"/>
      <point x="-2183" y="497" type="line"/>
      <point x="-216" y="497" type="line"/>
      <point x="-297" y="442"/>
      <point x="-372" y="373"/>
      <point x="-453" y="284" type="curve" smooth="yes"/>
      <point x="-593" y="132" type="line"/>
      <point x="-385" y="-46" type="line"/>
      <point x="219" y="626" type="line"/>
    </contour>
    <component base="_part.arrowhead"/>
  </outline>
</glyph>
<glyph name="less_dollar_greater.liga" format="2">
  <advance width="1200"/>
  <outline>
    <contour>
      <point x="-502" y="1712" type="line"/>
      <point x="-663" y="1712" type="line"/>
      <point x="-663" y="1468" type="line"/>
      <point x="-911" y="1442"/>
      <point x="-1066" y="1239"/>
      <point x="-1066" y="1023" type="curve" smooth="yes"/>
      <point x="-1066" y="833"/>
      <point x="-952" y="711"/>
      <point x="-663" y="616" type="curve"/>
      <point x="-663" y="118" type="line"/>
      <point x="-782" y="125"/>
      <point x="-903" y="157"/>
      <point x="-1079" y="256" type="curve"/>
      <point x="-1079" y="-58" type="line"/>
      <point x="-939" y="-141"/>
      <point x="-861" y="-169"/>
      <point x="-663" y="-182" type="curve"/>
      <point x="-663" y="-324" type="line"/>
      <point x="-502" y="-324" type="line"/>
      <point x="-502" y="-168" type="line"/>
      <point x="-182" y="-140"/>
      <point x="-29" y="143"/>
      <point x="-29" y="368" type="curve" smooth="yes"/>
      <point x="-29" y="583"/>
      <point x="-234" y="755"/>
      <point x="-502" y="845" type="curve"/>
      <point x="-502" y="1194" type="line"/>
      <point x="-420" y="1188"/>
      <point x="-276" y="1122"/>
      <point x="-61" y="998" type="curve"/>
      <point x="-61" y="1312" type="line"/>
      <point x="-236" y="1425"/>
      <point x="-338" y="1456"/>
      <point x="-502" y="1470" type="curve"/>
    </contour>
    <contour>
      <point x="-502" y="552" type="line"/>
      <point x="-403" y="502"/>
      <point x="-324" y="435"/>
      <point x="-324" y="323" type="curve" smooth="yes"/>
      <point x="-324" y="232"/>
      <point x="-421" y="138"/>
      <point x="-502" y="120" type="curve"/>
    </contour>
    <contour>
      <point x="-663" y="1192" type="curve"/>
      <point x="-663" y="906" type="line"/>
      <point x="-769" y="955"/>
      <point x="-783" y="993"/>
      <point x="-783" y="1060" type="curve" smooth="yes"/>
      <point x="-783" y="1123"/>
      <point x="-744" y="1178"/>
    </contour>
    <contour>
      <point x="-1155" y="1268" type="line"/>
      <point x="-2001" y="739" type="line"/>
      <point x="-2001" y="515" type="line"/>
      <point x="-1079" y="-58" type="line"/>
      <point x="-1079" y="256" type="line"/>
      <point x="-1728" y="628" type="line"/>
      <point x="-1218" y="928" type="line"/>
    </contour>
    <contour>
      <point x="-61" y="1312" type="line"/>
      <point x="-61" y="998" type="line"/>
      <point x="589" y="628" type="line"/>
      <point x="99" y="343" type="line"/>
      <point x="-2" y="-19" type="line"/>
      <point x="861" y="515" type="line"/>
      <point x="861" y="741" type="line"/>
    </contour>
  </outline>
</glyph>
<glyph name="less_hyphen_greater.liga" format="2">
  <advance width="1200"/>
  <outline>
    <contour>
      <point x="398" y="1298" type="line"/>
      <point x="191" y="1120" type="line"/>
      <point x="331" y="968" type="line" smooth="yes"/>
      <point x="414" y="879"/>
      <point x="486" y="808"/>
      <point x="571" y="755" type="curve"/>
      <point x="-1771" y="755" type="line"/>
      <point x="-1686" y="808"/>
      <point x="-1614" y="879"/>
      <point x="-1531" y="968" type="curve" smooth="yes"/>
      <point x="-1391" y="1120" type="line"/>
      <point x="-1598" y="1298" type="line"/>
      <point x="-2203" y="626" type="line"/>
      <point x="-1598" y="-46" type="line"/>
      <point x="-1391" y="132" type="line"/>
      <point x="-1531" y="284" type="line" smooth="yes"/>
      <point x="-1611" y="373"/>
      <point x="-1686" y="442"/>
      <point x="-1768" y="497" type="curve"/>
      <point x="568" y="497" type="line"/>
      <point x="486" y="442"/>
      <point x="411" y="373"/>
      <point x="331" y="284" type="curve" smooth="yes"/>
      <point x="191" y="132" type="line"/>
      <point x="398" y="-46" type="line"/>
      <point x="1003" y="626" type="line"/>
    </contour>
  </outline>
</glyph>
<glyph name="less_slash_greater.liga" format="2">
  <advance width="1200"/>
  <outline>
    <contour>
      <point x="-219" y="1409" type="line"/>
      <point x="-359" y="1182" type="line"/>
      <point x="589" y="628" type="line"/>
      <point x="-61" y="246" type="line"/>
      <point x="82" y="31" type="line"/>
      <point x="861" y="515" type="line"/>
      <point x="861" y="741" type="line"/>
    </contour>
    <component base="less_slash.liga" xOffset="-1000"/>
  </outline>
</glyph>
<glyph name="nine.dnom" format="2">
  <advance width="1200"/>
  <outline>
    <contour>
      <point x="341" y="131" type="curve"/>
      <point x="390" y="-26" type="line"/>
      <point x="732" y="22"/>
      <point x="924" y="138"/>
      <point x="924" y="384" type="curve" smooth="yes"/>
      <point x="924" y="540"/>
      <point x="817" y="654"/>
      <point x="604" y="654" type="curve" smooth="yes"/>
      <point x="418" y="654"/>
      <point x="276" y="566"/>
      <point x="276" y="418" type="curve" smooth="yes"/>
      <point x="276" y="288"/>
      <point x="375" y="224"/>
      <point x="499" y="224" type="curve" smooth="yes"/>
      <point x="564" y="224"/>
      <point x="614" y="240"/>
      <point x="684" y="276" type="curve"/>
      <point x="611" y="184"/>
      <point x="514" y="151"/>
    </contour>
    <contour>
      <point x="590" y="363" type="curve" smooth="yes"/>
      <point x="545" y="363"/>
      <point x="512" y="380"/>
      <point x="512" y="428" type="curve" smooth="yes"/>
      <point x="512" y="475"/>
      <point x="545" y="499"/>
      <point x="596" y="499" type="curve" smooth="yes"/>
      <point x="659" y="499"/>
      <point x="684" y="466"/>
      <point x="686" y="392" type="curve"/>
      <point x="657" y="375"/>
      <point x="625" y="363"/>
    </contour>
  </outline>
</glyph>
<glyph name="nine.tosf" format="2">
  <advance width="1200"/>
  <outline>
    <contour>
      <point x="592" y="1164" type="curve" smooth="yes"/>
      <point x="305" y="1164"/>
      <point x="87" y="964"/>
      <point x="87" y="685" type="curve"/>
      <point x="87" y="437"/>
      <point x="261" y="261"/>
      <point x="479" y="261" type="curve" smooth="yes"/>
      <point x="618" y="261"/>
      <point x="714" y="321"/>
      <point x="811" y="421" type="curve"/>
      <point x="815" y="599" type="line"/>
      <point x="739" y="523"/>
      <point x="669" y="482"/>
      <point x="578" y="482" type="curve" smooth="yes"/>
      <point x="482" y="482"/>
      <point x="405" y="543"/>
      <point x="405" y="694" type="curve"/>
      <point x="405" y="855"/>
      <point x="476" y="938"/>
      <point x="590" y="938" type="curve" smooth="yes"/>
      <point x="753" y="938"/>
      <point x="780" y="797"/>
      <point x="776" y="522" type="curve"/>
      <point x="776" y="414" type="line"/>
      <point x="751" y="180"/>
      <point x="548" y="52"/>
      <point x="192" y="-38" type="curve"/>
      <point x="257" y="-259" type="line"/>
      <point x="839" y="-139"/>
      <point x="1102" y="117"/>
      <point x="1102" y="630" type="curve" smooth="yes"/>
      <point x="1102" y="938"/>
      <point x="931" y="1164"/>
    </contour>
  </outline>
</glyph>
<glyph name="numbersign_braceleft.liga" format="2">
  <advance width="1200"/>
  <outline>
    <contour>
      <point x="-98" y="893" type="line"/>
      <point x="627" y="893" type="line"/>
      <point x="627" y="1102" type="line"/>
      <point x="-70" y="1102" type="line"/>
      <point x="-32" y="1386" type="line"/>
      <point x="-293" y="1386" type="line"/>
      <point x="-331" y="1102" type="line"/>
      <point x="-522" y="1102" type="line"/>
      <point x="-483" y="1386" type="line"/>
      <point x="-746" y="1386" type="line"/>
      <point x="-782" y="1102" type="line"/>
      <point x="-935" y="1102" type="line"/>
      <point x="-935" y="893" type="line"/>
      <point x="-810" y="893" type="line"/>
      <point x="-862" y="497" type="line"/>
      <point x="-1009" y="497" type="line"/>
      <point x="-1009" y="289" type="line"/>
      <point x="-890" y="289" type="line"/>
      <point x="-926" y="0" type="line"/>
      <point x="-665" y="0" type="line"/>
      <point x="-627" y="289" type="line"/>
      <point x="-437" y="289" type="line"/>
      <point x="-475" y="0" type="line"/>
      <point x="-214" y="0" type="line"/>
      <point x="-176" y="289" type="line"/>
      <point x="627" y="289" type="line"/>
      <point x="627" y="497" type="line"/>
      <point x="-148" y="497" type="line"/>
    </contour>
    <contour>
      <point x="-601" y="497" type="line"/>
      <point x="-549" y="893" type="line"/>
      <point x="-359" y="893" type="line"/>
      <point x="-411" y="497" type="line"/>
    </contour>
    <component base="braceleft"/>
  </outline>
</glyph>
<glyph name="numbersign_colon.liga_rem" format="2">
  <advance width="1200"/>
  <outline>
    <contour>
      <point x="435" y="345" type="curve" smooth="yes"/>
      <point x="435" y="230"/>
      <point x="529" y="135"/>
      <point x="646" y="135" type="curve" smooth="yes"/>
      <point x="763" y="135"/>
      <point x="855" y="230"/>
      <point x="855" y="345" type="curve" smooth="yes"/>
      <point x="855" y="459"/>
      <point x="763" y="552"/>
      <point x="646" y="552" type="curve" smooth="yes"/>
      <point x="529" y="552"/>
      <point x="435" y="459"/>
    </contour>
    <contour>
      <point x="507" y="999" type="curve" smooth="yes"/>
      <point x="507" y="885"/>
      <point x="601" y="790"/>
      <point x="718" y="790" type="curve" smooth="yes"/>
      <point x="835" y="790"/>
      <point x="927" y="885"/>
      <point x="927" y="999" type="curve" smooth="yes"/>
      <point x="927" y="1112"/>
      <point x="835" y="1209"/>
      <point x="718" y="1209" type="curve" smooth="yes"/>
      <point x="601" y="1209"/>
      <point x="507" y="1112"/>
    </contour>
    <component base="numbersign" xOffset="-1000"/>
  </outline>
</glyph>
<glyph name="numbersign_numbersign_numbersign_numbersign.liga.rem" format="2">
  <advance width="1200"/>
  <outline>
    <contour>
      <point x="839" y="893" type="line"/>
      <point x="839" y="1102" type="line"/>
      <point x="604" y="1102" type="line"/>
      <point x="645" y="1386" type="line"/>
      <point x="401" y="1386" type="line"/>
      <point x="363" y="1102" type="line"/>
      <point x="-214" y="1102" type="line"/>
      <point x="-173" y="1386" type="line"/>
      <point x="-417" y="1386" type="line"/>
      <point x="-455" y="1102" type="line"/>
      <point x="-1028" y="1102" type="line"/>
      <point x="-987" y="1386" type="line"/>
      <point x="-1225" y="1386" type="line"/>
      <point x="-1263" y="1102" type="line"/>
      <point x="-1838" y="1102" type="line"/>
      <point x="-1797" y="1386" type="line"/>
      <point x="-2041" y="1386" type="line"/>
      <point x="-2079" y="1102" type="line"/>
      <point x="-2654" y="1102" type="line"/>
      <point x="-2613" y="1386" type="line"/>
      <point x="-2857" y="1386" type="line"/>
      <point x="-2895" y="1102" type="line"/>
      <point x="-3165" y="1102" type="line"/>
      <point x="-3165" y="893" type="line"/>
      <point x="-2923" y="893" type="line"/>
      <point x="-2977" y="497" type="line"/>
      <point x="-3239" y="497" type="line"/>
      <point x="-3239" y="289" type="line"/>
      <point x="-3005" y="289" type="line"/>
      <point x="-3043" y="0" type="line"/>
      <point x="-2799" y="0" type="line"/>
      <point x="-2761" y="289" type="line"/>
      <point x="-2189" y="289" type="line"/>
      <point x="-2227" y="0" type="line"/>
      <point x="-1983" y="0" type="line"/>
      <point x="-1945" y="289" type="line"/>
      <point x="-1373" y="289" type="line"/>
      <point x="-1411" y="0" type="line"/>
      <point x="-1173" y="0" type="line"/>
      <point x="-1135" y="289" type="line"/>
      <point x="-565" y="289" type="line"/>
      <point x="-603" y="0" type="line"/>
      <point x="-359" y="0" type="line"/>
      <point x="-321" y="289" type="line"/>
      <point x="253" y="289" type="line"/>
      <point x="215" y="0" type="line"/>
      <point x="459" y="0" type="line"/>
      <point x="495" y="289" type="line"/>
      <point x="765" y="289" type="line"/>
      <point x="765" y="497" type="line"/>
      <point x="525" y="497" type="line"/>
      <point x="577" y="893" type="line"/>
    </contour>
    <contour>
      <point x="-2161" y="497" type="line"/>
      <point x="-2733" y="497" type="line"/>
      <point x="-2681" y="893" type="line"/>
      <point x="-2107" y="893" type="line"/>
    </contour>
    <contour>
      <point x="-1345" y="497" type="line"/>
      <point x="-1917" y="497" type="line"/>
      <point x="-1865" y="893" type="line"/>
      <point x="-1291" y="893" type="line"/>
    </contour>
    <contour>
      <point x="-537" y="497" type="line"/>
      <point x="-1107" y="497" type="line"/>
      <point x="-1055" y="893" type="line"/>
      <point x="-483" y="893" type="line"/>
    </contour>
    <contour>
      <point x="281" y="497" type="line"/>
      <point x="-293" y="497" type="line"/>
      <point x="-241" y="893" type="line"/>
      <point x="335" y="893" type="line"/>
    </contour>
  </outline>
</glyph>
<glyph name="one.dnom" format="2">
  <advance width="1200"/>
  <outline>
    <contour>
      <point x="617" y="0" type="line"/>
      <point x="843" y="0" type="line"/>
      <point x="843" y="642" type="line"/>
      <point x="651" y="642" type="line"/>
      <point x="355" y="484" type="line"/>
      <point x="460" y="341" type="line"/>
      <point x="617" y="422" type="line"/>
    </contour>
  </outline>
</glyph>
<glyph name="period_hyphen.liga" format="2">
  <advance width="1200"/>
  <outline>
    <contour>
      <point x="-103" y="503" type="line"/>
      <point x="983" y="503" type="line"/>
      <point x="983" y="749" type="line"/>
      <point x="-103" y="749" type="line"/>
    </contour>
    <component base="bullet" xOffset="-1233" yOffset="-46"/>
  </outline>
</glyph>
<glyph name="plus_plus.liga" format="2">
  <advance width="1200"/>
  <outline>
    <contour>
      <point x="-369" y="503" type="line"/>
      <point x="367" y="503" type="line"/>
      <point x="367" y="92" type="line"/>
      <point x="631" y="92" type="line"/>
      <point x="631" y="503" type="line"/>
      <point x="1034" y="503" type="line"/>
      <point x="1034" y="747" type="line"/>
      <point x="631" y="747" type="line"/>
      <point x="631" y="1158" type="line"/>
      <point x="367" y="1158" type="line"/>
      <point x="367" y="747" type="line"/>
      <point x="-369" y="747" type="line"/>
      <point x="-369" y="1158" type="line"/>
      <point x="-633" y="1158" type="line"/>
      <point x="-633" y="747" type="line"/>
      <point x="-1034" y="747" type="line"/>
      <point x="-1034" y="503" type="line"/>
      <point x="-633" y="503" type="line"/>
      <point x="-633" y="92" type="line"/>
      <point x="-369" y="92" type="line"/>
    </contour>
  </outline>
</glyph>
<glyph name="question_colon.liga" format="2">
  <advance width="1200"/>
  <outline>
    <contour>
      <point x="-358" y="1421" type="curve" smooth="yes"/>
      <point x="-567" y="1421"/>
      <point x="-724" y="1340"/>
      <point x="-838" y="1206" type="curve"/>
      <point x="-638" y="1050" type="line"/>
      <point x="-566" y="1132"/>
      <point x="-478" y="1172"/>
      <point x="-387" y="1172" type="curve" smooth="yes"/>
      <point x="-294" y="1172"/>
      <point x="-227" y="1132"/>
      <point x="-227" y="1059" type="curve" smooth="yes"/>
      <point x="-227" y="893"/>
      <point x="-558" y="905"/>
      <point x="-558" y="561" type="curve" smooth="yes"/>
      <point x="-558" y="510" type="line"/>
      <point x="-269" y="510" type="line"/>
      <point x="-269" y="551" type="line" smooth="yes"/>
      <point x="-269" y="785"/>
      <point x="102" y="762"/>
      <point x="102" y="1086" type="curve" smooth="yes"/>
      <point x="102" y="1264"/>
      <point x="-53" y="1421"/>
    </contour>
    <contour>
      <point x="-620" y="177" type="curve" smooth="yes"/>
      <point x="-620" y="62"/>
      <point x="-527" y="-34"/>
      <point x="-410" y="-34" type="curve" smooth="yes"/>
      <point x="-292" y="-34"/>
      <point x="-201" y="62"/>
      <point x="-201" y="177" type="curve" smooth="yes"/>
      <point x="-201" y="290"/>
      <point x="-292" y="384"/>
      <point x="-410" y="384" type="curve" smooth="yes"/>
      <point x="-527" y="384"/>
      <point x="-620" y="290"/>
    </contour>
    <component base="colon" xOffset="-200"/>
  </outline>
</glyph>
<glyph name="r.ss01" format="2">
  <advance width="1200"/>
  <anchor x="448" y="0" name="bottom"/>
  <anchor x="650" y="1062" name="top"/>
  <outline>
    <contour>
      <point x="150" y="0" type="line"/>
      <point x="816" y="0" type="line"/>
      <point x="816" y="212" type="line"/>
      <point x="606" y="212" type="line"/>
      <point x="606" y="516" type="line"/>
      <point x="661" y="691"/>
      <point x="769" y="817"/>
      <point x="908" y="817" type="curve" smooth="yes"/>
      <point x="955" y="817"/>
      <point x="991" y="811"/>
      <point x="1030" y="801" type="curve"/>
      <point x="1126" y="1062" type="line"/>
      <point x="1076" y="1082"/>
      <point x="1023" y="1094"/>
      <point x="951" y="1094" type="curve" smooth="yes"/>
      <point x="780" y="1094"/>
      <point x="665" y="1005"/>
      <point x="589" y="823" type="curve"/>
      <point x="531" y="1062" type="line"/>
      <point x="150" y="1062" type="line"/>
      <point x="150" y="852" type="line"/>
      <point x="290" y="852" type="line"/>
      <point x="290" y="212" type="line"/>
      <point x="150" y="212" type="line"/>
    </contour>
  </outline>
</glyph>
<glyph name="tonos.case" format="2">
  <advance width="1200"/>
  <anchor x="820" y="1386" name="_topleft"/>
  <outline>
    <contour>
      <point x="487" y="1449" type="line"/>
      <point x="411" y="969" type="line"/>
      <point x="613" y="933" type="line"/>
      <point x="789" y="1386" type="line"/>
    </contour>
  </outline>
</glyph>
<glyph name="two.tosf" format="2">
  <advance width="1200"/>
  <outline>
    <contour>
      <point x="572" y="1164" type="curve" smooth="yes"/>
      <point x="357" y="1164"/>
      <point x="202" y="1082"/>
      <point x="92" y="926" type="curve"/>
      <point x="276" y="782" type="line"/>
      <point x="356" y="884"/>
      <point x="431" y="926"/>
      <point x="539" y="926" type="curve" smooth="yes"/>
      <point x="648" y="926"/>
      <point x="709" y="866"/>
      <point x="709" y="772" type="curve" smooth="yes"/>
      <point x="709" y="642"/>
      <point x="631" y="563"/>
      <point x="137" y="224" type="curve"/>
      <point x="137" y="0" type="line"/>
      <point x="1025" y="0" type="line"/>
      <point x="1059" y="237" type="line"/>
      <point x="525" y="237" type="line"/>
      <point x="952" y="498"/>
      <point x="1031" y="606"/>
      <point x="1031" y="796" type="curve" smooth="yes"/>
      <point x="1031" y="998"/>
      <point x="855" y="1164"/>
    </contour>
  </outline>
</glyph>
